<svg version="1.1" xmlns="http://www.w3.org/2000/svg" xmlns:xlink="http://www.w3.org/1999/xlink" width="1364" height="740"><defs></defs><g><g transform="translate(-14,-6) scale(1,1)"><rect fill="#C0C0C0" stroke="none" x="519" y="551" width="332" height="192" opacity="0.2"></rect></g><g transform="translate(-14,-6) scale(1,1)"><rect fill="#ffffff" stroke="none" x="512" y="544" width="332" height="192"></rect></g><g transform="translate(-14,-6) scale(1,1)"><path fill="none" stroke="#000000" d="M 512 544 L 844 544 L 844 736 L 512 736 L 512 544 Z Z" stroke-miterlimit="10"></path></g><g transform="translate(-14,-6) scale(1,1)"><path fill="none" stroke="#000000" d="M 512 569 L 844 569" stroke-miterlimit="10"></path></g><g transform="translate(-14,-6) scale(1,1)"><path fill="none" stroke="#000000" d="M 512 579 L 844 579" stroke-miterlimit="10"></path></g><g transform="translate(-14,-6) scale(1,1)"><g><path fill="none" stroke="none"></path><text fill="#000000" stroke="none" font-family="Arial" font-size="13px" font-style="italic" font-weight="bold" text-decoration="none" x="660" y="563.5">Signal</text></g></g><g transform="translate(-14,-6) scale(1,1)"><g><path fill="none" stroke="none"></path><text fill="#000000" stroke="none" font-family="Arial" font-size="13px" font-style="italic" font-weight="normal" text-decoration="none" x="517" y="596.5">+getSignalValues(): List</text></g></g><g transform="translate(-14,-6) scale(1,1)"><g><path fill="none" stroke="none"></path><text fill="#000000" stroke="none" font-family="Arial" font-size="13px" font-style="italic" font-weight="normal" text-decoration="none" x="517" y="611.5">+setUpdater(updater: Updatable): void</text></g></g><g transform="translate(-14,-6) scale(1,1)"><g><path fill="none" stroke="none"></path><text fill="#000000" stroke="none" font-family="Arial" font-size="13px" font-style="italic" font-weight="normal" text-decoration="none" x="517" y="626.5">+setActualValue(value: Number): void</text></g></g><g transform="translate(-14,-6) scale(1,1)"><g><path fill="none" stroke="none"></path><text fill="#000000" stroke="none" font-family="Arial" font-size="13px" font-style="italic" font-weight="normal" text-decoration="none" x="517" y="641.5">+setActualValue(value: Value): void</text></g></g><g transform="translate(-14,-6) scale(1,1)"><g><path fill="none" stroke="none"></path><text fill="#000000" stroke="none" font-family="Arial" font-size="13px" font-style="italic" font-weight="normal" text-decoration="none" x="517" y="656.5">+setActualValue(value: Number, timeStemp: float): void</text></g></g><g transform="translate(-14,-6) scale(1,1)"><g><path fill="none" stroke="none"></path><text fill="#000000" stroke="none" font-family="Arial" font-size="13px" font-style="italic" font-weight="normal" text-decoration="none" x="517" y="671.5">+getActualValue(): Value</text></g></g><g transform="translate(-14,-6) scale(1,1)"><g><path fill="none" stroke="none"></path><text fill="#000000" stroke="none" font-family="Arial" font-size="13px" font-style="italic" font-weight="normal" text-decoration="none" x="517" y="686.5">+getUnit(): Unit</text></g></g><g transform="translate(-14,-6) scale(1,1)"><g><path fill="none" stroke="none"></path><text fill="#000000" stroke="none" font-family="Arial" font-size="13px" font-style="normal" font-weight="normal" text-decoration="none" x="517" y="701.5">+getInput(): Input</text></g></g><g transform="translate(-14,-6) scale(1,1)"><g><path fill="none" stroke="none"></path><text fill="#000000" stroke="none" font-family="Arial" font-size="13px" font-style="normal" font-weight="normal" text-decoration="none" x="517" y="716.5">+getOutput(): Output</text></g></g><g transform="translate(-14,-6) scale(1,1)"><rect fill="#C0C0C0" stroke="none" x="39" y="23" width="330" height="370" opacity="0.2"></rect></g><g transform="translate(-14,-6) scale(1,1)"><rect fill="#ffffff" stroke="none" x="32" y="16" width="330" height="370"></rect></g><g transform="translate(-14,-6) scale(1,1)"><path fill="none" stroke="#000000" d="M 32 16 L 362 16 L 362 386 L 32 386 L 32 16 Z Z" stroke-miterlimit="10"></path></g><g transform="translate(-14,-6) scale(1,1)"><path fill="none" stroke="#000000" d="M 32 41 L 362 41" stroke-miterlimit="10"></path></g><g transform="translate(-14,-6) scale(1,1)"><path fill="none" stroke="#000000" d="M 32 94 L 362 94" stroke-miterlimit="10"></path></g><g transform="translate(-14,-6) scale(1,1)"><g><path fill="none" stroke="none"></path><text fill="#000000" stroke="none" font-family="Arial" font-size="13px" font-style="normal" font-weight="bold" text-decoration="none" x="166" y="35.5">ValueFloat</text></g></g><g transform="translate(-14,-6) scale(1,1)"><g><path fill="none" stroke="none"></path><text fill="#000000" stroke="none" font-family="Arial" font-size="13px" font-style="normal" font-weight="normal" text-decoration="none" x="37" y="58.5">#value: float</text></g></g><g transform="translate(-14,-6) scale(1,1)"><g><path fill="none" stroke="none"></path><text fill="#000000" stroke="none" font-family="Arial" font-size="13px" font-style="normal" font-weight="normal" text-decoration="none" x="37" y="73.5">#timeStamp: float</text></g></g><g transform="translate(-14,-6) scale(1,1)"><g><path fill="none" stroke="none"></path><text fill="#000000" stroke="none" font-family="Arial" font-size="13px" font-style="normal" font-weight="normal" text-decoration="none" x="37" y="88.5">#logger: Logger = null</text></g></g><g transform="translate(-14,-6) scale(1,1)"><g><path fill="none" stroke="none"></path><text fill="#000000" stroke="none" font-family="Arial" font-size="13px" font-style="normal" font-weight="normal" text-decoration="none" x="37" y="111.5">«constructor»+ValueFloat()</text></g></g><g transform="translate(-14,-6) scale(1,1)"><g><path fill="none" stroke="none"></path><text fill="#000000" stroke="none" font-family="Arial" font-size="13px" font-style="normal" font-weight="normal" text-decoration="none" x="37" y="126.5">«constructor»+ValueFloat(value: float)</text></g></g><g transform="translate(-14,-6) scale(1,1)"><g><path fill="none" stroke="none"></path><text fill="#000000" stroke="none" font-family="Arial" font-size="13px" font-style="normal" font-weight="normal" text-decoration="none" x="37" y="141.5">«constructor»+ValueFloat(value: float, timeStamp: float)</text></g></g><g transform="translate(-14,-6) scale(1,1)"><g><path fill="none" stroke="none"></path><text fill="#000000" stroke="none" font-family="Arial" font-size="13px" font-style="normal" font-weight="normal" text-decoration="none" x="37" y="156.5">+getValue(): Number</text></g></g><g transform="translate(-14,-6) scale(1,1)"><g><path fill="none" stroke="none"></path><text fill="#000000" stroke="none" font-family="Arial" font-size="13px" font-style="normal" font-weight="normal" text-decoration="none" x="37" y="171.5">+setValue(value: Number): void</text></g></g><g transform="translate(-14,-6) scale(1,1)"><g><path fill="none" stroke="none"></path><text fill="#000000" stroke="none" font-family="Arial" font-size="13px" font-style="normal" font-weight="normal" text-decoration="none" x="37" y="186.5">+setValue(value: Value): void</text></g></g><g transform="translate(-14,-6) scale(1,1)"><g><path fill="none" stroke="none"></path><text fill="#000000" stroke="none" font-family="Arial" font-size="13px" font-style="normal" font-weight="normal" text-decoration="none" x="37" y="201.5">+setValue(value: Number, timeStamp: float): void</text></g></g><g transform="translate(-14,-6) scale(1,1)"><g><path fill="none" stroke="none"></path><text fill="#000000" stroke="none" font-family="Arial" font-size="13px" font-style="normal" font-weight="normal" text-decoration="none" x="37" y="216.5">+addValue(toAdd: Number): void</text></g></g><g transform="translate(-14,-6) scale(1,1)"><g><path fill="none" stroke="none"></path><text fill="#000000" stroke="none" font-family="Arial" font-size="13px" font-style="normal" font-weight="normal" text-decoration="none" x="37" y="231.5">+addValue(toAdd: Value): void</text></g></g><g transform="translate(-14,-6) scale(1,1)"><g><path fill="none" stroke="none"></path><text fill="#000000" stroke="none" font-family="Arial" font-size="13px" font-style="normal" font-weight="normal" text-decoration="none" x="37" y="246.5">+subtractValue(toSubtract: Number): void</text></g></g><g transform="translate(-14,-6) scale(1,1)"><g><path fill="none" stroke="none"></path><text fill="#000000" stroke="none" font-family="Arial" font-size="13px" font-style="normal" font-weight="normal" text-decoration="none" x="37" y="261.5">+subtractValue(toSubtract: Value): void</text></g></g><g transform="translate(-14,-6) scale(1,1)"><g><path fill="none" stroke="none"></path><text fill="#000000" stroke="none" font-family="Arial" font-size="13px" font-style="normal" font-weight="normal" text-decoration="none" x="37" y="276.5">+multiplyValue(toMultiply: Number): void</text></g></g><g transform="translate(-14,-6) scale(1,1)"><g><path fill="none" stroke="none"></path><text fill="#000000" stroke="none" font-family="Arial" font-size="13px" font-style="normal" font-weight="normal" text-decoration="none" x="37" y="291.5">+divideValue(toDivide: Number): void</text></g></g><g transform="translate(-14,-6) scale(1,1)"><g><path fill="none" stroke="none"></path><text fill="#000000" stroke="none" font-family="Arial" font-size="13px" font-style="normal" font-weight="normal" text-decoration="none" x="37" y="306.5">+getTimeStamp(): float</text></g></g><g transform="translate(-14,-6) scale(1,1)"><g><path fill="none" stroke="none"></path><text fill="#000000" stroke="none" font-family="Arial" font-size="13px" font-style="normal" font-weight="normal" text-decoration="none" x="37" y="321.5">+setTimeStamp(timeStamp: float): void</text></g></g><g transform="translate(-14,-6) scale(1,1)"><g><path fill="none" stroke="none"></path><text fill="#000000" stroke="none" font-family="Arial" font-size="13px" font-style="normal" font-weight="normal" text-decoration="none" x="37" y="336.5">+setLogger(logger: Logger): void</text></g></g><g transform="translate(-14,-6) scale(1,1)"><g><path fill="none" stroke="none"></path><text fill="#000000" stroke="none" font-family="Arial" font-size="13px" font-style="normal" font-weight="normal" text-decoration="none" x="37" y="351.5">-logThis(): void</text></g></g><g transform="translate(-14,-6) scale(1,1)"><g><path fill="none" stroke="none"></path><text fill="#000000" stroke="none" font-family="Arial" font-size="13px" font-style="normal" font-weight="normal" text-decoration="none" x="37" y="366.5">-logThis(info: String): void</text></g></g><g transform="translate(-14,-6) scale(1,1)"><rect fill="#C0C0C0" stroke="none" x="31" y="431" width="404" height="145" opacity="0.2"></rect></g><g transform="translate(-14,-6) scale(1,1)"><rect fill="#ffffff" stroke="none" x="24" y="424" width="404" height="145"></rect></g><g transform="translate(-14,-6) scale(1,1)"><path fill="none" stroke="#000000" d="M 24 424 L 428 424 L 428 569 L 24 569 L 24 424 Z Z" stroke-miterlimit="10"></path></g><g transform="translate(-14,-6) scale(1,1)"><path fill="none" stroke="#000000" d="M 24 449 L 428 449" stroke-miterlimit="10"></path></g><g transform="translate(-14,-6) scale(1,1)"><path fill="none" stroke="#000000" d="M 24 472 L 428 472" stroke-miterlimit="10"></path></g><g transform="translate(-14,-6) scale(1,1)"><g><path fill="none" stroke="none"></path><text fill="#000000" stroke="none" font-family="Arial" font-size="13px" font-style="normal" font-weight="bold" text-decoration="none" x="188" y="443.5">ReadingFloat</text></g></g><g transform="translate(-14,-6) scale(1,1)"><g><path fill="none" stroke="none"></path><text fill="#000000" stroke="none" font-family="Arial" font-size="13px" font-style="normal" font-weight="normal" text-decoration="none" x="29" y="466.5">-unit: Unit</text></g></g><g transform="translate(-14,-6) scale(1,1)"><g><path fill="none" stroke="none"></path><text fill="#000000" stroke="none" font-family="Arial" font-size="13px" font-style="normal" font-weight="normal" text-decoration="none" x="29" y="489.5">«constructor»+ReadingFloat(unit: Unit)</text></g></g><g transform="translate(-14,-6) scale(1,1)"><g><path fill="none" stroke="none"></path><text fill="#000000" stroke="none" font-family="Arial" font-size="13px" font-style="normal" font-weight="normal" text-decoration="none" x="29" y="504.5">«constructor»+ReadingFloat(value: float, unit: Unit)</text></g></g><g transform="translate(-14,-6) scale(1,1)"><g><path fill="none" stroke="none"></path><text fill="#000000" stroke="none" font-family="Arial" font-size="13px" font-style="normal" font-weight="normal" text-decoration="none" x="29" y="519.5">«constructor»+ReadingFloat(value: float, timeStemp: float, unit: Unit)</text></g></g><g transform="translate(-14,-6) scale(1,1)"><g><path fill="none" stroke="none"></path><text fill="#000000" stroke="none" font-family="Arial" font-size="13px" font-style="normal" font-weight="normal" text-decoration="none" x="29" y="534.5">+getUnit(): Unit</text></g></g><g transform="translate(-14,-6) scale(1,1)"><g><path fill="none" stroke="none"></path><text fill="#000000" stroke="none" font-family="Arial" font-size="13px" font-style="normal" font-weight="normal" text-decoration="none" x="29" y="549.5">+setUnit(unit: Unit): void</text></g></g><g transform="translate(-14,-6) scale(1,1)"><path fill="none" stroke="#000000" d="M 219 423 L 215 387" stroke-miterlimit="10"></path></g><g transform="translate(-14,-6) scale(1,1)"><path fill="#FFFFFF" stroke="none" d="M 225.61210184410797 406.2713075438663 L 215 387 L 208.87701693001165 408.1307614232104"></path></g><g transform="translate(-14,-6) scale(1,1)"><path fill="none" stroke="#000000" d="M 225.61210184410797 406.2713075438663 L 215 387 L 208.87701693001165 408.1307614232104 L 225.61210184410797 406.2713075438663" stroke-miterlimit="10"></path></g><g transform="translate(-14,-6) scale(1,1)"><rect fill="#C0C0C0" stroke="none" x="959" y="415" width="328" height="222" opacity="0.2"></rect></g><g transform="translate(-14,-6) scale(1,1)"><rect fill="#ffffff" stroke="none" x="952" y="408" width="328" height="222"></rect></g><g transform="translate(-14,-6) scale(1,1)"><path fill="none" stroke="#000000" d="M 952 408 L 1280 408 L 1280 630 L 952 630 L 952 408 Z Z" stroke-miterlimit="10"></path></g><g transform="translate(-14,-6) scale(1,1)"><path fill="none" stroke="#000000" d="M 952 433 L 1280 433" stroke-miterlimit="10"></path></g><g transform="translate(-14,-6) scale(1,1)"><path fill="none" stroke="#000000" d="M 952 443 L 1280 443" stroke-miterlimit="10"></path></g><g transform="translate(-14,-6) scale(1,1)"><g><path fill="none" stroke="none"></path><text fill="#000000" stroke="none" font-family="Arial" font-size="13px" font-style="normal" font-weight="bold" text-decoration="none" x="1083.5" y="427.5">SignalFloat</text></g></g><g transform="translate(-14,-6) scale(1,1)"><g><path fill="none" stroke="none"></path><text fill="#000000" stroke="none" font-family="Arial" font-size="13px" font-style="normal" font-weight="normal" text-decoration="none" x="957" y="460.5">«constructor»+SignalFloat(unit: Unit)</text></g></g><g transform="translate(-14,-6) scale(1,1)"><g><path fill="none" stroke="none"></path><text fill="#000000" stroke="none" font-family="Arial" font-size="13px" font-style="normal" font-weight="normal" text-decoration="none" x="957" y="475.5">-updateList(): void</text></g></g><g transform="translate(-14,-6) scale(1,1)"><g><path fill="none" stroke="none"></path><text fill="#000000" stroke="none" font-family="Arial" font-size="13px" font-style="normal" font-weight="normal" text-decoration="none" x="957" y="490.5">+getSignalValues(): List</text></g></g><g transform="translate(-14,-6) scale(1,1)"><g><path fill="none" stroke="none"></path><text fill="#000000" stroke="none" font-family="Arial" font-size="13px" font-style="normal" font-weight="normal" text-decoration="none" x="957" y="505.5">+setUpdater(updater: Updatable): void</text></g></g><g transform="translate(-14,-6) scale(1,1)"><g><path fill="none" stroke="none"></path><text fill="#000000" stroke="none" font-family="Arial" font-size="13px" font-style="normal" font-weight="normal" text-decoration="none" x="957" y="520.5">+updateActualValue(): Value</text></g></g><g transform="translate(-14,-6) scale(1,1)"><g><path fill="none" stroke="none"></path><text fill="#000000" stroke="none" font-family="Arial" font-size="13px" font-style="normal" font-weight="normal" text-decoration="none" x="957" y="535.5">+setActualValue(value: Number): void</text></g></g><g transform="translate(-14,-6) scale(1,1)"><g><path fill="none" stroke="none"></path><text fill="#000000" stroke="none" font-family="Arial" font-size="13px" font-style="normal" font-weight="normal" text-decoration="none" x="957" y="550.5">+setActualValue(value: Value): void</text></g></g><g transform="translate(-14,-6) scale(1,1)"><g><path fill="none" stroke="none"></path><text fill="#000000" stroke="none" font-family="Arial" font-size="13px" font-style="normal" font-weight="normal" text-decoration="none" x="957" y="565.5">+setActualValue(value: Number, timeStemp: float): void</text></g></g><g transform="translate(-14,-6) scale(1,1)"><g><path fill="none" stroke="none"></path><text fill="#000000" stroke="none" font-family="Arial" font-size="13px" font-style="normal" font-weight="normal" text-decoration="none" x="957" y="580.5">+getActualValue(): Value</text></g></g><g transform="translate(-14,-6) scale(1,1)"><g><path fill="none" stroke="none"></path><text fill="#000000" stroke="none" font-family="Arial" font-size="13px" font-style="normal" font-weight="normal" text-decoration="none" x="957" y="595.5">+callbackActualValue(value: Value): void</text></g></g><g transform="translate(-14,-6) scale(1,1)"><g><path fill="none" stroke="none"></path><text fill="#000000" stroke="none" font-family="Arial" font-size="13px" font-style="normal" font-weight="normal" text-decoration="none" x="957" y="610.5">+getUnit(): Unit</text></g></g><g transform="translate(-14,-6) scale(1,1)"><path fill="none" stroke="#000000" d="M 1091 631 Q 1072 720 845 674" stroke-miterlimit="10"></path></g><g transform="translate(-14,-6) scale(1,1)"><path fill="#FFFFFF" stroke="none" d="M 866.5925294512501 669.7854215042433 L 845 674 L 863.2483810321418 686.2880669637567"></path></g><g transform="translate(-14,-6) scale(1,1)"><path fill="none" stroke="#000000" d="M 866.5925294512501 669.7854215042433 L 845 674 L 863.2483810321418 686.2880669637567 L 866.5925294512501 669.7854215042433" stroke-miterlimit="10"></path></g><g transform="translate(-14,-6) scale(1,1)"><path fill="none" stroke="#000000" d="M 951 462 L 363 258" stroke-miterlimit="10"></path></g><g transform="translate(-14,-6) scale(1,1)"><path fill="none" stroke="#000000" d="M 373.98101927591097 257.35407766560417 L 363 258 L 371.221489257108 265.3080171315657" stroke-miterlimit="10"></path></g><g transform="translate(-14,-6) scale(1,1)"><g><path fill="none" stroke="none"></path><text fill="#000000" stroke="none" font-family="Arial" font-size="13px" font-style="normal" font-weight="normal" text-decoration="none" x="359.5" y="286.5">-Values</text></g></g><g transform="translate(-14,-6) scale(1,1)"><g><path fill="none" stroke="none"></path><text fill="#000000" stroke="none" font-family="Arial" font-size="13px" font-style="normal" font-weight="normal" text-decoration="none" x="328.5" y="299.5">{collection="List"}</text></g></g><g transform="translate(-14,-6) scale(1,1)"><g><path fill="none" stroke="none"></path><text fill="#000000" stroke="none" font-family="Arial" font-size="13px" font-style="normal" font-weight="normal" text-decoration="none" x="384.5" y="259.5">*</text></g></g><g transform="translate(-14,-6) scale(1,1)"><path fill="none" stroke="#000000" d="M 951 515 L 429 501" stroke-miterlimit="10"></path></g><g transform="translate(-14,-6) scale(1,1)"><path fill="none" stroke="#000000" d="M 439.2718801411048 497.06445958389753 L 429 501 L 439.04616341917045 505.4804687874509" stroke-miterlimit="10"></path></g><g transform="translate(-14,-6) scale(1,1)"><g><path fill="none" stroke="none"></path><text fill="#000000" stroke="none" font-family="Arial" font-size="13px" font-style="normal" font-weight="normal" text-decoration="none" x="434.5" y="522.5">-actual</text></g></g><g transform="translate(-14,-6) scale(1,1)"><rect fill="#C0C0C0" stroke="none" x="519" y="63" width="295" height="237" opacity="0.2"></rect></g><g transform="translate(-14,-6) scale(1,1)"><rect fill="#ffffff" stroke="none" x="512" y="56" width="295" height="237"></rect></g><g transform="translate(-14,-6) scale(1,1)"><path fill="none" stroke="#000000" d="M 512 56 L 807 56 L 807 293 L 512 293 L 512 56 Z Z" stroke-miterlimit="10"></path></g><g transform="translate(-14,-6) scale(1,1)"><path fill="none" stroke="#000000" d="M 512 81 L 807 81" stroke-miterlimit="10"></path></g><g transform="translate(-14,-6) scale(1,1)"><path fill="none" stroke="#000000" d="M 512 91 L 807 91" stroke-miterlimit="10"></path></g><g transform="translate(-14,-6) scale(1,1)"><g><path fill="none" stroke="none"></path><text fill="#000000" stroke="none" font-family="Arial" font-size="13px" font-style="italic" font-weight="bold" text-decoration="none" x="643" y="75.5">Value</text></g></g><g transform="translate(-14,-6) scale(1,1)"><g><path fill="none" stroke="none"></path><text fill="#000000" stroke="none" font-family="Arial" font-size="13px" font-style="italic" font-weight="normal" text-decoration="none" x="517" y="108.5">+getValue(): Number</text></g></g><g transform="translate(-14,-6) scale(1,1)"><g><path fill="none" stroke="none"></path><text fill="#000000" stroke="none" font-family="Arial" font-size="13px" font-style="italic" font-weight="normal" text-decoration="none" x="517" y="123.5">+setValue(value: Number): void</text></g></g><g transform="translate(-14,-6) scale(1,1)"><g><path fill="none" stroke="none"></path><text fill="#000000" stroke="none" font-family="Arial" font-size="13px" font-style="italic" font-weight="normal" text-decoration="none" x="517" y="138.5">+setValue(value: Value): void</text></g></g><g transform="translate(-14,-6) scale(1,1)"><g><path fill="none" stroke="none"></path><text fill="#000000" stroke="none" font-family="Arial" font-size="13px" font-style="italic" font-weight="normal" text-decoration="none" x="517" y="153.5">+setValue(value: Number, timeStemp: float): void</text></g></g><g transform="translate(-14,-6) scale(1,1)"><g><path fill="none" stroke="none"></path><text fill="#000000" stroke="none" font-family="Arial" font-size="13px" font-style="italic" font-weight="normal" text-decoration="none" x="517" y="168.5">+addValue(toAdd: Number): void</text></g></g><g transform="translate(-14,-6) scale(1,1)"><g><path fill="none" stroke="none"></path><text fill="#000000" stroke="none" font-family="Arial" font-size="13px" font-style="italic" font-weight="normal" text-decoration="none" x="517" y="183.5">+addValue(toAdd: Value): void</text></g></g><g transform="translate(-14,-6) scale(1,1)"><g><path fill="none" stroke="none"></path><text fill="#000000" stroke="none" font-family="Arial" font-size="13px" font-style="italic" font-weight="normal" text-decoration="none" x="517" y="198.5">+subtractValue(toSubtract: Number): void</text></g></g><g transform="translate(-14,-6) scale(1,1)"><g><path fill="none" stroke="none"></path><text fill="#000000" stroke="none" font-family="Arial" font-size="13px" font-style="italic" font-weight="normal" text-decoration="none" x="517" y="213.5">+subtractValue(toSubtract: Value): void</text></g></g><g transform="translate(-14,-6) scale(1,1)"><g><path fill="none" stroke="none"></path><text fill="#000000" stroke="none" font-family="Arial" font-size="13px" font-style="italic" font-weight="normal" text-decoration="none" x="517" y="228.5">+multiplyValue(toMultiply: Number): void</text></g></g><g transform="translate(-14,-6) scale(1,1)"><g><path fill="none" stroke="none"></path><text fill="#000000" stroke="none" font-family="Arial" font-size="13px" font-style="italic" font-weight="normal" text-decoration="none" x="517" y="243.5">+divideValue(toDivide: Number): void</text></g></g><g transform="translate(-14,-6) scale(1,1)"><g><path fill="none" stroke="none"></path><text fill="#000000" stroke="none" font-family="Arial" font-size="13px" font-style="italic" font-weight="normal" text-decoration="none" x="517" y="258.5">+getTimeStamp(): float</text></g></g><g transform="translate(-14,-6) scale(1,1)"><g><path fill="none" stroke="none"></path><text fill="#000000" stroke="none" font-family="Arial" font-size="13px" font-style="italic" font-weight="normal" text-decoration="none" x="517" y="273.5">+setTimeStamp(timeStamp: float): void</text></g></g><g transform="translate(-14,-6) scale(1,1)"><path fill="none" stroke="#000000" d="M 363 191 L 511 183" stroke-miterlimit="10"></path></g><g transform="translate(-14,-6) scale(1,1)"><path fill="#FFFFFF" stroke="none" d="M 491.158698704175 192.50382885411412 L 511 183 L 490.2498594761762 175.69030313613717"></path></g><g transform="translate(-14,-6) scale(1,1)"><path fill="none" stroke="#000000" d="M 491.158698704175 192.50382885411412 L 511 183 L 490.2498594761762 175.69030313613717 L 491.158698704175 192.50382885411412" stroke-miterlimit="10"></path></g><g transform="translate(-14,-6) scale(1,1)"><rect fill="#C0C0C0" stroke="none" x="975" y="31" width="305" height="340" opacity="0.2"></rect></g><g transform="translate(-14,-6) scale(1,1)"><rect fill="#ffffff" stroke="none" x="968" y="24" width="305" height="340"></rect></g><g transform="translate(-14,-6) scale(1,1)"><path fill="none" stroke="#000000" d="M 968 24 L 1273 24 L 1273 364 L 968 364 L 968 24 Z Z" stroke-miterlimit="10"></path></g><g transform="translate(-14,-6) scale(1,1)"><path fill="none" stroke="#000000" d="M 968 49 L 1273 49" stroke-miterlimit="10"></path></g><g transform="translate(-14,-6) scale(1,1)"><path fill="none" stroke="#000000" d="M 968 102 L 1273 102" stroke-miterlimit="10"></path></g><g transform="translate(-14,-6) scale(1,1)"><g><path fill="none" stroke="none"></path><text fill="#000000" stroke="none" font-family="Arial" font-size="13px" font-style="normal" font-weight="bold" text-decoration="none" x="1097" y="43.5">ValueInt</text></g></g><g transform="translate(-14,-6) scale(1,1)"><g><path fill="none" stroke="none"></path><text fill="#000000" stroke="none" font-family="Arial" font-size="13px" font-style="normal" font-weight="normal" text-decoration="none" x="973" y="66.5">#value: int</text></g></g><g transform="translate(-14,-6) scale(1,1)"><g><path fill="none" stroke="none"></path><text fill="#000000" stroke="none" font-family="Arial" font-size="13px" font-style="normal" font-weight="normal" text-decoration="none" x="973" y="81.5">#timeStamp: float</text></g></g><g transform="translate(-14,-6) scale(1,1)"><g><path fill="none" stroke="none"></path><text fill="#000000" stroke="none" font-family="Arial" font-size="13px" font-style="normal" font-weight="normal" text-decoration="none" x="973" y="96.5">#logger: Logger = null</text></g></g><g transform="translate(-14,-6) scale(1,1)"><g><path fill="none" stroke="none"></path><text fill="#000000" stroke="none" font-family="Arial" font-size="13px" font-style="normal" font-weight="normal" text-decoration="none" x="973" y="119.5">«constructor»+ValueInt()</text></g></g><g transform="translate(-14,-6) scale(1,1)"><g><path fill="none" stroke="none"></path><text fill="#000000" stroke="none" font-family="Arial" font-size="13px" font-style="normal" font-weight="normal" text-decoration="none" x="973" y="134.5">«constructor»+ValueInt(value: int)</text></g></g><g transform="translate(-14,-6) scale(1,1)"><g><path fill="none" stroke="none"></path><text fill="#000000" stroke="none" font-family="Arial" font-size="13px" font-style="normal" font-weight="normal" text-decoration="none" x="973" y="149.5">«constructor»+ValueInt(value: int, timeStamp: float)</text></g></g><g transform="translate(-14,-6) scale(1,1)"><g><path fill="none" stroke="none"></path><text fill="#000000" stroke="none" font-family="Arial" font-size="13px" font-style="normal" font-weight="normal" text-decoration="none" x="973" y="164.5">+getValue(): Number</text></g></g><g transform="translate(-14,-6) scale(1,1)"><g><path fill="none" stroke="none"></path><text fill="#000000" stroke="none" font-family="Arial" font-size="13px" font-style="normal" font-weight="normal" text-decoration="none" x="973" y="179.5">+setValue(value: Number): void</text></g></g><g transform="translate(-14,-6) scale(1,1)"><g><path fill="none" stroke="none"></path><text fill="#000000" stroke="none" font-family="Arial" font-size="13px" font-style="normal" font-weight="normal" text-decoration="none" x="973" y="194.5">+setValue(value: Value): void</text></g></g><g transform="translate(-14,-6) scale(1,1)"><g><path fill="none" stroke="none"></path><text fill="#000000" stroke="none" font-family="Arial" font-size="13px" font-style="normal" font-weight="normal" text-decoration="none" x="973" y="209.5">+setValue(value: Number, timeStamp: float): void</text></g></g><g transform="translate(-14,-6) scale(1,1)"><g><path fill="none" stroke="none"></path><text fill="#000000" stroke="none" font-family="Arial" font-size="13px" font-style="normal" font-weight="normal" text-decoration="none" x="973" y="224.5">+addValue(toAdd: Number): void</text></g></g><g transform="translate(-14,-6) scale(1,1)"><g><path fill="none" stroke="none"></path><text fill="#000000" stroke="none" font-family="Arial" font-size="13px" font-style="normal" font-weight="normal" text-decoration="none" x="973" y="239.5">+addValue(toAdd: Value): void</text></g></g><g transform="translate(-14,-6) scale(1,1)"><g><path fill="none" stroke="none"></path><text fill="#000000" stroke="none" font-family="Arial" font-size="13px" font-style="normal" font-weight="normal" text-decoration="none" x="973" y="254.5">+subtractValue(toSubtract: Number): void</text></g></g><g transform="translate(-14,-6) scale(1,1)"><g><path fill="none" stroke="none"></path><text fill="#000000" stroke="none" font-family="Arial" font-size="13px" font-style="normal" font-weight="normal" text-decoration="none" x="973" y="269.5">+subtractValue(toSubtract: Value): void</text></g></g><g transform="translate(-14,-6) scale(1,1)"><g><path fill="none" stroke="none"></path><text fill="#000000" stroke="none" font-family="Arial" font-size="13px" font-style="normal" font-weight="normal" text-decoration="none" x="973" y="284.5">+multiplyValue(toMultiply: Number): void</text></g></g><g transform="translate(-14,-6) scale(1,1)"><g><path fill="none" stroke="none"></path><text fill="#000000" stroke="none" font-family="Arial" font-size="13px" font-style="normal" font-weight="normal" text-decoration="none" x="973" y="299.5">+divideValue(toDivide: Number): void</text></g></g><g transform="translate(-14,-6) scale(1,1)"><g><path fill="none" stroke="none"></path><text fill="#000000" stroke="none" font-family="Arial" font-size="13px" font-style="normal" font-weight="normal" text-decoration="none" x="973" y="314.5">+getTimeStamp(): float</text></g></g><g transform="translate(-14,-6) scale(1,1)"><g><path fill="none" stroke="none"></path><text fill="#000000" stroke="none" font-family="Arial" font-size="13px" font-style="normal" font-weight="normal" text-decoration="none" x="973" y="329.5">+setTimeStamp(timeStamp: float): void</text></g></g><g transform="translate(-14,-6) scale(1,1)"><g><path fill="none" stroke="none"></path><text fill="#000000" stroke="none" font-family="Arial" font-size="13px" font-style="normal" font-weight="normal" text-decoration="none" x="973" y="344.5">+setLogger(logger: Logger): void</text></g></g><g transform="translate(-14,-6) scale(1,1)"><path fill="none" stroke="#000000" d="M 967 187 L 808 180" stroke-miterlimit="10"></path></g><g transform="translate(-14,-6) scale(1,1)"><path fill="#FFFFFF" stroke="none" d="M 828.6759715435226 172.48307238750797 L 808 180 L 827.9353901745264 189.30484919756339"></path></g><g transform="translate(-14,-6) scale(1,1)"><path fill="none" stroke="#000000" d="M 828.6759715435226 172.48307238750797 L 808 180 L 827.9353901745264 189.30484919756339 L 828.6759715435226 172.48307238750797" stroke-miterlimit="10"></path></g><g transform="translate(-14,-6) scale(1,1)"><rect fill="#C0C0C0" stroke="none" x="1295" y="23" width="32" height="15" opacity="0.2"></rect></g><g transform="translate(-14,-6) scale(1,1)"><rect fill="#C0C0C0" stroke="none" x="1295" y="37" width="80" height="40" opacity="0.2"></rect></g><g transform="translate(-14,-6) scale(1,1)"><rect fill="#ffffff" stroke="none" x="1288" y="31" width="80" height="39"></rect></g><g transform="translate(-14,-6) scale(1,1)"><path fill="none" stroke="#000000" d="M 1288 31 L 1368 31 L 1368 70 L 1288 70 L 1288 31 Z Z" stroke-miterlimit="10"></path></g><g transform="translate(-14,-6) scale(1,1)"><rect fill="#ffffff" stroke="none" x="1288" y="16" width="32" height="15"></rect></g><g transform="translate(-14,-6) scale(1,1)"><path fill="none" stroke="#000000" d="M 1288 16 L 1320 16 L 1320 31 L 1288 31 L 1288 16 Z Z" stroke-miterlimit="10"></path></g><g transform="translate(-14,-6) scale(1,1)"><rect fill="#ffffff" stroke="none" x="1288" y="30" width="80" height="40"></rect></g><g transform="translate(-14,-6) scale(1,1)"><path fill="none" stroke="#000000" d="M 1288 30 L 1368 30 L 1368 70 L 1288 70 L 1288 30 Z Z" stroke-miterlimit="10"></path></g><g transform="translate(-14,-6) scale(1,1)"><g><path fill="none" stroke="none"></path><text fill="#000000" stroke="none" font-family="Arial" font-size="13px" font-style="normal" font-weight="bold" text-decoration="none" x="1317.5" y="50.5">unit</text></g></g></g></svg>