<svg version="1.1" xmlns="http://www.w3.org/2000/svg" xmlns:xlink="http://www.w3.org/1999/xlink" width="481" height="269"><defs></defs><g><g transform="translate(-10,-10) scale(1,1)"><rect fill="#C0C0C0" stroke="none" x="232" y="27" width="19.599999999999994" height="15" opacity="0.2"></rect></g><g transform="translate(-10,-10) scale(1,1)"><rect fill="#C0C0C0" stroke="none" x="232" y="41" width="49" height="25" opacity="0.2"></rect></g><g transform="translate(-10,-10) scale(1,1)"><rect fill="#ffffff" stroke="none" x="225" y="35" width="49" height="24"></rect></g><g transform="translate(-10,-10) scale(1,1)"><path fill="none" stroke="#000000" d="M 225 35 L 274 35 L 274 59 L 225 59 L 225 35 Z Z" stroke-miterlimit="10"></path></g><g transform="translate(-10,-10) scale(1,1)"><rect fill="#ffffff" stroke="none" x="225" y="20" width="19.599999999999994" height="15"></rect></g><g transform="translate(-10,-10) scale(1,1)"><path fill="none" stroke="#000000" d="M 225 20 L 244.6 20 L 244.6 35 L 225 35 L 225 20 Z Z" stroke-miterlimit="10"></path></g><g transform="translate(-10,-10) scale(1,1)"><rect fill="#ffffff" stroke="none" x="225" y="34" width="49" height="25"></rect></g><g transform="translate(-10,-10) scale(1,1)"><path fill="none" stroke="#000000" d="M 225 34 L 274 34 L 274 59 L 225 59 L 225 34 Z Z" stroke-miterlimit="10"></path></g><g transform="translate(-10,-10) scale(1,1)"><g><path fill="none" stroke="none"></path><text fill="#000000" stroke="none" font-family="Arial" font-size="13px" font-style="normal" font-weight="bold" text-decoration="none" x="234" y="54.5">ciayn</text></g></g><g transform="translate(-10,-10) scale(1,1)"><rect fill="#C0C0C0" stroke="none" x="27" y="97" width="26.799999999999997" height="15" opacity="0.2"></rect></g><g transform="translate(-10,-10) scale(1,1)"><rect fill="#C0C0C0" stroke="none" x="27" y="111" width="67" height="25" opacity="0.2"></rect></g><g transform="translate(-10,-10) scale(1,1)"><rect fill="#ffffff" stroke="none" x="20" y="105" width="67" height="24"></rect></g><g transform="translate(-10,-10) scale(1,1)"><path fill="none" stroke="#000000" d="M 20 105 L 87 105 L 87 129 L 20 129 L 20 105 Z Z" stroke-miterlimit="10"></path></g><g transform="translate(-10,-10) scale(1,1)"><rect fill="#ffffff" stroke="none" x="20" y="90" width="26.799999999999997" height="15"></rect></g><g transform="translate(-10,-10) scale(1,1)"><path fill="none" stroke="#000000" d="M 20 90 L 46.8 90 L 46.8 105 L 20 105 L 20 90 Z Z" stroke-miterlimit="10"></path></g><g transform="translate(-10,-10) scale(1,1)"><rect fill="#ffffff" stroke="none" x="20" y="104" width="67" height="25"></rect></g><g transform="translate(-10,-10) scale(1,1)"><path fill="none" stroke="#000000" d="M 20 104 L 87 104 L 87 129 L 20 129 L 20 104 Z Z" stroke-miterlimit="10"></path></g><g transform="translate(-10,-10) scale(1,1)"><g><path fill="none" stroke="none"></path><text fill="#000000" stroke="none" font-family="Arial" font-size="13px" font-style="normal" font-weight="bold" text-decoration="none" x="27" y="124.5">elements</text></g></g><g transform="translate(-10,-10) scale(1,1)"><rect fill="#C0C0C0" stroke="none" x="36" y="167" width="19.6" height="15" opacity="0.2"></rect></g><g transform="translate(-10,-10) scale(1,1)"><rect fill="#C0C0C0" stroke="none" x="36" y="181" width="49" height="25" opacity="0.2"></rect></g><g transform="translate(-10,-10) scale(1,1)"><rect fill="#ffffff" stroke="none" x="29" y="175" width="49" height="24"></rect></g><g transform="translate(-10,-10) scale(1,1)"><path fill="none" stroke="#000000" d="M 29 175 L 78 175 L 78 199 L 29 199 L 29 175 Z Z" stroke-miterlimit="10"></path></g><g transform="translate(-10,-10) scale(1,1)"><rect fill="#ffffff" stroke="none" x="29" y="160" width="19.6" height="15"></rect></g><g transform="translate(-10,-10) scale(1,1)"><path fill="none" stroke="#000000" d="M 29 160 L 48.6 160 L 48.6 175 L 29 175 L 29 160 Z Z" stroke-miterlimit="10"></path></g><g transform="translate(-10,-10) scale(1,1)"><rect fill="#ffffff" stroke="none" x="29" y="174" width="49" height="25"></rect></g><g transform="translate(-10,-10) scale(1,1)"><path fill="none" stroke="#000000" d="M 29 174 L 78 174 L 78 199 L 29 199 L 29 174 Z Z" stroke-miterlimit="10"></path></g><g transform="translate(-10,-10) scale(1,1)"><g><path fill="none" stroke="none"></path><text fill="#000000" stroke="none" font-family="Arial" font-size="13px" font-style="normal" font-weight="bold" text-decoration="none" x="36.5" y="194.5">signal</text></g></g><g transform="translate(-10,-10) scale(1,1)"><rect fill="#C0C0C0" stroke="none" x="36" y="237" width="19.6" height="15" opacity="0.2"></rect></g><g transform="translate(-10,-10) scale(1,1)"><rect fill="#C0C0C0" stroke="none" x="36" y="251" width="49" height="25" opacity="0.2"></rect></g><g transform="translate(-10,-10) scale(1,1)"><rect fill="#ffffff" stroke="none" x="29" y="245" width="49" height="24"></rect></g><g transform="translate(-10,-10) scale(1,1)"><path fill="none" stroke="#000000" d="M 29 245 L 78 245 L 78 269 L 29 269 L 29 245 Z Z" stroke-miterlimit="10"></path></g><g transform="translate(-10,-10) scale(1,1)"><rect fill="#ffffff" stroke="none" x="29" y="230" width="19.6" height="15"></rect></g><g transform="translate(-10,-10) scale(1,1)"><path fill="none" stroke="#000000" d="M 29 230 L 48.6 230 L 48.6 245 L 29 245 L 29 230 Z Z" stroke-miterlimit="10"></path></g><g transform="translate(-10,-10) scale(1,1)"><rect fill="#ffffff" stroke="none" x="29" y="244" width="49" height="25"></rect></g><g transform="translate(-10,-10) scale(1,1)"><path fill="none" stroke="#000000" d="M 29 244 L 78 244 L 78 269 L 29 269 L 29 244 Z Z" stroke-miterlimit="10"></path></g><g transform="translate(-10,-10) scale(1,1)"><g><path fill="none" stroke="none"></path><text fill="#000000" stroke="none" font-family="Arial" font-size="13px" font-style="normal" font-weight="bold" text-decoration="none" x="43" y="264.5">unit</text></g></g><g transform="translate(-10,-10) scale(1,1)"><rect fill="#C0C0C0" stroke="none" x="125" y="97" width="20" height="15" opacity="0.2"></rect></g><g transform="translate(-10,-10) scale(1,1)"><rect fill="#C0C0C0" stroke="none" x="125" y="111" width="50" height="25" opacity="0.2"></rect></g><g transform="translate(-10,-10) scale(1,1)"><rect fill="#ffffff" stroke="none" x="118" y="105" width="50" height="24"></rect></g><g transform="translate(-10,-10) scale(1,1)"><path fill="none" stroke="#000000" d="M 118 105 L 168 105 L 168 129 L 118 129 L 118 105 Z Z" stroke-miterlimit="10"></path></g><g transform="translate(-10,-10) scale(1,1)"><rect fill="#ffffff" stroke="none" x="118" y="90" width="20" height="15"></rect></g><g transform="translate(-10,-10) scale(1,1)"><path fill="none" stroke="#000000" d="M 118 90 L 138 90 L 138 105 L 118 105 L 118 90 Z Z" stroke-miterlimit="10"></path></g><g transform="translate(-10,-10) scale(1,1)"><rect fill="#ffffff" stroke="none" x="118" y="104" width="50" height="25"></rect></g><g transform="translate(-10,-10) scale(1,1)"><path fill="none" stroke="#000000" d="M 118 104 L 168 104 L 168 129 L 118 129 L 118 104 Z Z" stroke-miterlimit="10"></path></g><g transform="translate(-10,-10) scale(1,1)"><g><path fill="none" stroke="none"></path><text fill="#000000" stroke="none" font-family="Arial" font-size="13px" font-style="normal" font-weight="bold" text-decoration="none" x="125.5" y="124.5">logger</text></g></g><g transform="translate(-10,-10) scale(1,1)"><rect fill="#C0C0C0" stroke="none" x="206" y="97" width="40.400000000000006" height="15" opacity="0.2"></rect></g><g transform="translate(-10,-10) scale(1,1)"><rect fill="#C0C0C0" stroke="none" x="206" y="111" width="101" height="25" opacity="0.2"></rect></g><g transform="translate(-10,-10) scale(1,1)"><rect fill="#ffffff" stroke="none" x="199" y="105" width="101" height="24"></rect></g><g transform="translate(-10,-10) scale(1,1)"><path fill="none" stroke="#000000" d="M 199 105 L 300 105 L 300 129 L 199 129 L 199 105 Z Z" stroke-miterlimit="10"></path></g><g transform="translate(-10,-10) scale(1,1)"><rect fill="#ffffff" stroke="none" x="199" y="90" width="40.400000000000006" height="15"></rect></g><g transform="translate(-10,-10) scale(1,1)"><path fill="none" stroke="#000000" d="M 199 90 L 239.4 90 L 239.4 105 L 199 105 L 199 90 Z Z" stroke-miterlimit="10"></path></g><g transform="translate(-10,-10) scale(1,1)"><rect fill="#ffffff" stroke="none" x="199" y="104" width="101" height="25"></rect></g><g transform="translate(-10,-10) scale(1,1)"><path fill="none" stroke="#000000" d="M 199 104 L 300 104 L 300 129 L 199 129 L 199 104 Z Z" stroke-miterlimit="10"></path></g><g transform="translate(-10,-10) scale(1,1)"><g><path fill="none" stroke="none"></path><text fill="#000000" stroke="none" font-family="Arial" font-size="13px" font-style="normal" font-weight="bold" text-decoration="none" x="210" y="124.5">environmantal</text></g></g><g transform="translate(-10,-10) scale(1,1)"><rect fill="#C0C0C0" stroke="none" x="338" y="97" width="19.600000000000023" height="15" opacity="0.2"></rect></g><g transform="translate(-10,-10) scale(1,1)"><rect fill="#C0C0C0" stroke="none" x="338" y="111" width="49" height="25" opacity="0.2"></rect></g><g transform="translate(-10,-10) scale(1,1)"><rect fill="#ffffff" stroke="none" x="331" y="105" width="49" height="24"></rect></g><g transform="translate(-10,-10) scale(1,1)"><path fill="none" stroke="#000000" d="M 331 105 L 380 105 L 380 129 L 331 129 L 331 105 Z Z" stroke-miterlimit="10"></path></g><g transform="translate(-10,-10) scale(1,1)"><rect fill="#ffffff" stroke="none" x="331" y="90" width="19.600000000000023" height="15"></rect></g><g transform="translate(-10,-10) scale(1,1)"><path fill="none" stroke="#000000" d="M 331 90 L 350.6 90 L 350.6 105 L 331 105 L 331 90 Z Z" stroke-miterlimit="10"></path></g><g transform="translate(-10,-10) scale(1,1)"><rect fill="#ffffff" stroke="none" x="331" y="104" width="49" height="25"></rect></g><g transform="translate(-10,-10) scale(1,1)"><path fill="none" stroke="#000000" d="M 331 104 L 380 104 L 380 129 L 331 129 L 331 104 Z Z" stroke-miterlimit="10"></path></g><g transform="translate(-10,-10) scale(1,1)"><g><path fill="none" stroke="none"></path><text fill="#000000" stroke="none" font-family="Arial" font-size="13px" font-style="normal" font-weight="bold" text-decoration="none" x="341.5" y="124.5">plant</text></g></g><g transform="translate(-10,-10) scale(1,1)"><rect fill="#C0C0C0" stroke="none" x="418" y="97" width="28" height="15" opacity="0.2"></rect></g><g transform="translate(-10,-10) scale(1,1)"><rect fill="#C0C0C0" stroke="none" x="418" y="111" width="70" height="25" opacity="0.2"></rect></g><g transform="translate(-10,-10) scale(1,1)"><rect fill="#ffffff" stroke="none" x="411" y="105" width="70" height="24"></rect></g><g transform="translate(-10,-10) scale(1,1)"><path fill="none" stroke="#000000" d="M 411 105 L 481 105 L 481 129 L 411 129 L 411 105 Z Z" stroke-miterlimit="10"></path></g><g transform="translate(-10,-10) scale(1,1)"><rect fill="#ffffff" stroke="none" x="411" y="90" width="28" height="15"></rect></g><g transform="translate(-10,-10) scale(1,1)"><path fill="none" stroke="#000000" d="M 411 90 L 439 90 L 439 105 L 411 105 L 411 90 Z Z" stroke-miterlimit="10"></path></g><g transform="translate(-10,-10) scale(1,1)"><rect fill="#ffffff" stroke="none" x="411" y="104" width="70" height="25"></rect></g><g transform="translate(-10,-10) scale(1,1)"><path fill="none" stroke="#000000" d="M 411 104 L 481 104 L 481 129 L 411 129 L 411 104 Z Z" stroke-miterlimit="10"></path></g><g transform="translate(-10,-10) scale(1,1)"><g><path fill="none" stroke="none"></path><text fill="#000000" stroke="none" font-family="Arial" font-size="13px" font-style="normal" font-weight="bold" text-decoration="none" x="419.5" y="124.5">controller</text></g></g><g transform="translate(-10,-10) scale(1,1)"><path fill="none" stroke="#000000" d="M 54 89 Q 54 75 224 44" stroke-miterlimit="10"></path></g><g transform="translate(-10,-10) scale(1,1)"><path fill="#FFFFFF" stroke="none" d="M 210.11355968741262 45.25576264523652 C 210.11355968741262 41.38976904523652 213.24756608741262 38.25576264523652 217.11355968741262 38.25576264523652 C 220.9795532874126 38.25576264523652 224.11355968741262 41.38976904523652 224.11355968741262 45.25576264523652 C 224.11355968741262 49.121756245236526 220.9795532874126 52.25576264523652 217.11355968741262 52.25576264523652 C 213.24756608741262 52.25576264523652 210.11355968741262 49.121756245236526 210.11355968741262 45.25576264523652 Z"></path></g><g transform="translate(-10,-10) scale(1,1)"><path fill="none" stroke="#000000" d="M 210.11355968741262 45.25576264523652 C 210.11355968741262 41.38976904523652 213.24756608741262 38.25576264523652 217.11355968741262 38.25576264523652 C 220.9795532874126 38.25576264523652 224.11355968741262 41.38976904523652 224.11355968741262 45.25576264523652 C 224.11355968741262 49.121756245236526 220.9795532874126 52.25576264523652 217.11355968741262 52.25576264523652 C 213.24756608741262 52.25576264523652 210.11355968741262 49.121756245236526 210.11355968741262 45.25576264523652 Z" stroke-miterlimit="10"></path></g><g transform="translate(-10,-10) scale(1,1)"><path fill="none" stroke="#000000" d="M 210.22711937482524 46.511525290473045 L 224 44" stroke-miterlimit="10"></path></g><g transform="translate(-10,-10) scale(1,1)"><path fill="none" stroke="#000000" d="M 218.36932233264915 52.142202957823905 L 215.8577970421761 38.36932233264914" stroke-miterlimit="10"></path></g><g transform="translate(-10,-10) scale(1,1)"><path fill="none" stroke="#000000" d="M 54 159 Q 54 145 54 130" stroke-miterlimit="10"></path></g><g transform="translate(-10,-10) scale(1,1)"><path fill="#FFFFFF" stroke="none" d="M 47 137 C 47 133.1340064 50.1340064 130 54 130 C 57.8659936 130 61 133.1340064 61 137 C 61 140.8659936 57.8659936 144 54 144 C 50.1340064 144 47 140.8659936 47 137 Z"></path></g><g transform="translate(-10,-10) scale(1,1)"><path fill="none" stroke="#000000" d="M 47 137 C 47 133.1340064 50.1340064 130 54 130 C 57.8659936 130 61 133.1340064 61 137 C 61 140.8659936 57.8659936 144 54 144 C 50.1340064 144 47 140.8659936 47 137 Z" stroke-miterlimit="10"></path></g><g transform="translate(-10,-10) scale(1,1)"><path fill="none" stroke="#000000" d="M 54 144 L 54 130" stroke-miterlimit="10"></path></g><g transform="translate(-10,-10) scale(1,1)"><path fill="none" stroke="#000000" d="M 61 137 L 47 137" stroke-miterlimit="10"></path></g><g transform="translate(-10,-10) scale(1,1)"><path fill="none" stroke="#000000" d="M 54 229 Q 54 215 54 200" stroke-miterlimit="10"></path></g><g transform="translate(-10,-10) scale(1,1)"><path fill="#FFFFFF" stroke="none" d="M 47 207 C 47 203.1340064 50.1340064 200 54 200 C 57.8659936 200 61 203.1340064 61 207 C 61 210.8659936 57.8659936 214 54 214 C 50.1340064 214 47 210.8659936 47 207 Z"></path></g><g transform="translate(-10,-10) scale(1,1)"><path fill="none" stroke="#000000" d="M 47 207 C 47 203.1340064 50.1340064 200 54 200 C 57.8659936 200 61 203.1340064 61 207 C 61 210.8659936 57.8659936 214 54 214 C 50.1340064 214 47 210.8659936 47 207 Z" stroke-miterlimit="10"></path></g><g transform="translate(-10,-10) scale(1,1)"><path fill="none" stroke="#000000" d="M 54 214 L 54 200" stroke-miterlimit="10"></path></g><g transform="translate(-10,-10) scale(1,1)"><path fill="none" stroke="#000000" d="M 61 207 L 47 207" stroke-miterlimit="10"></path></g><g transform="translate(-10,-10) scale(1,1)"><path fill="none" stroke="#000000" d="M 144 89 Q 144 75 224 48" stroke-miterlimit="10"></path></g><g transform="translate(-10,-10) scale(1,1)"><path fill="#FFFFFF" stroke="none" d="M 210.3675540470896 50.23845050910726 C 210.3675540470896 46.37245690910726 213.50156044708962 43.23845050910726 217.3675540470896 43.23845050910726 C 221.2335476470896 43.23845050910726 224.3675540470896 46.37245690910726 224.3675540470896 50.23845050910726 C 224.3675540470896 54.10444410910726 221.2335476470896 57.23845050910726 217.3675540470896 57.23845050910726 C 213.50156044708962 57.23845050910726 210.3675540470896 54.10444410910726 210.3675540470896 50.23845050910726 Z"></path></g><g transform="translate(-10,-10) scale(1,1)"><path fill="none" stroke="#000000" d="M 210.3675540470896 50.23845050910726 C 210.3675540470896 46.37245690910726 213.50156044708962 43.23845050910726 217.3675540470896 43.23845050910726 C 221.2335476470896 43.23845050910726 224.3675540470896 46.37245690910726 224.3675540470896 50.23845050910726 C 224.3675540470896 54.10444410910726 221.2335476470896 57.23845050910726 217.3675540470896 57.23845050910726 C 213.50156044708962 57.23845050910726 210.3675540470896 54.10444410910726 210.3675540470896 50.23845050910726 Z" stroke-miterlimit="10"></path></g><g transform="translate(-10,-10) scale(1,1)"><path fill="none" stroke="#000000" d="M 210.73510809417922 52.47690101821452 L 224 48" stroke-miterlimit="10"></path></g><g transform="translate(-10,-10) scale(1,1)"><path fill="none" stroke="#000000" d="M 219.60600455619686 56.870896462017654 L 215.12910353798236 43.606004556196865" stroke-miterlimit="10"></path></g><g transform="translate(-10,-10) scale(1,1)"><path fill="none" stroke="#000000" d="M 250 89 Q 250 75 250 60" stroke-miterlimit="10"></path></g><g transform="translate(-10,-10) scale(1,1)"><path fill="#FFFFFF" stroke="none" d="M 243 67 C 243 63.1340064 246.1340064 60 250 60 C 253.8659936 60 257 63.1340064 257 67 C 257 70.8659936 253.8659936 74 250 74 C 246.1340064 74 243 70.8659936 243 67 Z"></path></g><g transform="translate(-10,-10) scale(1,1)"><path fill="none" stroke="#000000" d="M 243 67 C 243 63.1340064 246.1340064 60 250 60 C 253.8659936 60 257 63.1340064 257 67 C 257 70.8659936 253.8659936 74 250 74 C 246.1340064 74 243 70.8659936 243 67 Z" stroke-miterlimit="10"></path></g><g transform="translate(-10,-10) scale(1,1)"><path fill="none" stroke="#000000" d="M 250 74 L 250 60" stroke-miterlimit="10"></path></g><g transform="translate(-10,-10) scale(1,1)"><path fill="none" stroke="#000000" d="M 257 67 L 243 67" stroke-miterlimit="10"></path></g><g transform="translate(-10,-10) scale(1,1)"><path fill="none" stroke="#000000" d="M 356 89 Q 356 75 275 48" stroke-miterlimit="10"></path></g><g transform="translate(-10,-10) scale(1,1)"><path fill="#FFFFFF" stroke="none" d="M 274.6407830863536 50.21359436211787 C 274.6407830863536 46.347600762117864 277.7747894863536 43.21359436211787 281.6407830863536 43.21359436211787 C 285.50677668635365 43.21359436211787 288.6407830863536 46.347600762117864 288.6407830863536 50.21359436211787 C 288.6407830863536 54.07958796211787 285.50677668635365 57.21359436211787 281.6407830863536 57.21359436211787 C 277.7747894863536 57.21359436211787 274.6407830863536 54.07958796211787 274.6407830863536 50.21359436211787 Z"></path></g><g transform="translate(-10,-10) scale(1,1)"><path fill="none" stroke="#000000" d="M 274.6407830863536 50.21359436211787 C 274.6407830863536 46.347600762117864 277.7747894863536 43.21359436211787 281.6407830863536 43.21359436211787 C 285.50677668635365 43.21359436211787 288.6407830863536 46.347600762117864 288.6407830863536 50.21359436211787 C 288.6407830863536 54.07958796211787 285.50677668635365 57.21359436211787 281.6407830863536 57.21359436211787 C 277.7747894863536 57.21359436211787 274.6407830863536 54.07958796211787 274.6407830863536 50.21359436211787 Z" stroke-miterlimit="10"></path></g><g transform="translate(-10,-10) scale(1,1)"><path fill="none" stroke="#000000" d="M 288.2815661727072 52.427188724235734 L 275 48" stroke-miterlimit="10"></path></g><g transform="translate(-10,-10) scale(1,1)"><path fill="none" stroke="#000000" d="M 283.8543774484715 43.57281127576427 L 279.42718872423575 56.85437744847147" stroke-miterlimit="10"></path></g><g transform="translate(-10,-10) scale(1,1)"><path fill="none" stroke="#000000" d="M 447 89 Q 447 75 275 44" stroke-miterlimit="10"></path></g><g transform="translate(-10,-10) scale(1,1)"><path fill="#FFFFFF" stroke="none" d="M 274.88900376632597 45.241622771837825 C 274.88900376632597 41.37562917183782 278.02301016632595 38.241622771837825 281.88900376632597 38.241622771837825 C 285.754997366326 38.241622771837825 288.88900376632597 41.37562917183782 288.88900376632597 45.241622771837825 C 288.88900376632597 49.10761637183783 285.754997366326 52.241622771837825 281.88900376632597 52.241622771837825 C 278.02301016632595 52.241622771837825 274.88900376632597 49.10761637183783 274.88900376632597 45.241622771837825 Z"></path></g><g transform="translate(-10,-10) scale(1,1)"><path fill="none" stroke="#000000" d="M 274.88900376632597 45.241622771837825 C 274.88900376632597 41.37562917183782 278.02301016632595 38.241622771837825 281.88900376632597 38.241622771837825 C 285.754997366326 38.241622771837825 288.88900376632597 41.37562917183782 288.88900376632597 45.241622771837825 C 288.88900376632597 49.10761637183783 285.754997366326 52.241622771837825 281.88900376632597 52.241622771837825 C 278.02301016632595 52.241622771837825 274.88900376632597 49.10761637183783 274.88900376632597 45.241622771837825 Z" stroke-miterlimit="10"></path></g><g transform="translate(-10,-10) scale(1,1)"><path fill="none" stroke="#000000" d="M 288.778007532652 46.48324554367565 L 275 44" stroke-miterlimit="10"></path></g><g transform="translate(-10,-10) scale(1,1)"><path fill="none" stroke="#000000" d="M 283.13062653816377 38.352619005511826 L 280.6473809944882 52.130626538163824" stroke-miterlimit="10"></path></g></g></svg>