<svg version="1.1" xmlns="http://www.w3.org/2000/svg" xmlns:xlink="http://www.w3.org/1999/xlink" width="999" height="515"><defs></defs><g><g transform="translate(-142,-38) scale(1,1)"><rect fill="#C0C0C0" stroke="none" x="511" y="55" width="337" height="130" opacity="0.2"></rect></g><g transform="translate(-142,-38) scale(1,1)"><rect fill="#ffffff" stroke="none" x="504" y="48" width="337" height="130"></rect></g><g transform="translate(-142,-38) scale(1,1)"><path fill="none" stroke="#000000" d="M 504 48 L 841 48 L 841 178 L 504 178 L 504 48 Z Z" stroke-miterlimit="10"></path></g><g transform="translate(-142,-38) scale(1,1)"><path fill="none" stroke="#000000" d="M 504 73 L 841 73" stroke-miterlimit="10"></path></g><g transform="translate(-142,-38) scale(1,1)"><path fill="none" stroke="#000000" d="M 504 111 L 841 111" stroke-miterlimit="10"></path></g><g transform="translate(-142,-38) scale(1,1)"><g><path fill="none" stroke="none"></path><text fill="#000000" stroke="none" font-family="Arial" font-size="13px" font-style="italic" font-weight="bold" text-decoration="none" x="661" y="67.5">Unit</text></g></g><g transform="translate(-142,-38) scale(1,1)"><g><path fill="none" stroke="none"></path><text fill="#000000" stroke="none" font-family="Arial" font-size="13px" font-style="normal" font-weight="normal" text-decoration="none" x="509" y="90.5">#physicalQuantity: String = "Unit"</text></g></g><g transform="translate(-142,-38) scale(1,1)"><g><path fill="none" stroke="none"></path><text fill="#000000" stroke="none" font-family="Arial" font-size="13px" font-style="normal" font-weight="normal" text-decoration="none" x="509" y="105.5">#unit: String = "Unit"</text></g></g><g transform="translate(-142,-38) scale(1,1)"><g><path fill="none" stroke="none"></path><text fill="#000000" stroke="none" font-family="Arial" font-size="13px" font-style="normal" font-weight="normal" text-decoration="none" x="509" y="128.5">«constructor»+Unit(physicalQuantity: String, unit: String)</text></g></g><g transform="translate(-142,-38) scale(1,1)"><g><path fill="none" stroke="none"></path><text fill="#000000" stroke="none" font-family="Arial" font-size="13px" font-style="normal" font-weight="normal" text-decoration="none" x="509" y="143.5">+toString(): String</text></g></g><g transform="translate(-142,-38) scale(1,1)"><g><path fill="none" stroke="none"></path><text fill="#000000" stroke="none" font-family="Arial" font-size="13px" font-style="normal" font-weight="normal" text-decoration="none" x="509" y="158.5">+getPhysicalQuantity(): String</text></g></g><g transform="translate(-142,-38) scale(1,1)"><rect fill="#C0C0C0" stroke="none" x="159" y="463" width="144" height="87" opacity="0.2"></rect></g><g transform="translate(-142,-38) scale(1,1)"><rect fill="#ffffff" stroke="none" x="152" y="456" width="144" height="87"></rect></g><g transform="translate(-142,-38) scale(1,1)"><path fill="none" stroke="#000000" d="M 152 456 L 296 456 L 296 543 L 152 543 L 152 456 Z Z" stroke-miterlimit="10"></path></g><g transform="translate(-142,-38) scale(1,1)"><path fill="none" stroke="#000000" d="M 152 481 L 296 481" stroke-miterlimit="10"></path></g><g transform="translate(-142,-38) scale(1,1)"><path fill="none" stroke="#000000" d="M 152 491 L 296 491" stroke-miterlimit="10"></path></g><g transform="translate(-142,-38) scale(1,1)"><g><path fill="none" stroke="none"></path><text fill="#000000" stroke="none" font-family="Arial" font-size="13px" font-style="normal" font-weight="bold" text-decoration="none" x="202" y="475.5">Voltage</text></g></g><g transform="translate(-142,-38) scale(1,1)"><g><path fill="none" stroke="none"></path><text fill="#000000" stroke="none" font-family="Arial" font-size="13px" font-style="normal" font-weight="normal" text-decoration="none" x="157" y="508.5">«constructor»-Voltage()</text></g></g><g transform="translate(-142,-38) scale(1,1)"><g><path fill="none" stroke="none"></path><text fill="#000000" stroke="none" font-family="Arial" font-size="13px" font-style="normal" font-weight="normal" text-decoration="none" x="157" y="523.5">+getUnit(): Unit</text><path fill="none" stroke="#000000" d="M 157 523.5 L 245 523.5" stroke-miterlimit="10"></path></g></g><g transform="translate(-142,-38) scale(1,1)"><path fill="none" stroke="#000000" d="M 297 484 Q 522 436 641 179" stroke-miterlimit="10"></path></g><g transform="translate(-142,-38) scale(1,1)"><path fill="#FFFFFF" stroke="none" d="M 640.0995333583369 200.98156408964684 L 641 179 L 624.8199609025718 193.9065869603237"></path></g><g transform="translate(-142,-38) scale(1,1)"><path fill="none" stroke="#000000" d="M 640.0995333583369 200.98156408964684 L 641 179 L 624.8199609025718 193.9065869603237 L 640.0995333583369 200.98156408964684" stroke-miterlimit="10"></path></g><g transform="translate(-142,-38) scale(1,1)"><rect fill="#C0C0C0" stroke="none" x="447" y="463" width="142" height="87" opacity="0.2"></rect></g><g transform="translate(-142,-38) scale(1,1)"><rect fill="#ffffff" stroke="none" x="440" y="456" width="142" height="87"></rect></g><g transform="translate(-142,-38) scale(1,1)"><path fill="none" stroke="#000000" d="M 440 456 L 582 456 L 582 543 L 440 543 L 440 456 Z Z" stroke-miterlimit="10"></path></g><g transform="translate(-142,-38) scale(1,1)"><path fill="none" stroke="#000000" d="M 440 481 L 582 481" stroke-miterlimit="10"></path></g><g transform="translate(-142,-38) scale(1,1)"><path fill="none" stroke="#000000" d="M 440 491 L 582 491" stroke-miterlimit="10"></path></g><g transform="translate(-142,-38) scale(1,1)"><g><path fill="none" stroke="none"></path><text fill="#000000" stroke="none" font-family="Arial" font-size="13px" font-style="normal" font-weight="bold" text-decoration="none" x="490" y="475.5">Current</text></g></g><g transform="translate(-142,-38) scale(1,1)"><g><path fill="none" stroke="none"></path><text fill="#000000" stroke="none" font-family="Arial" font-size="13px" font-style="normal" font-weight="normal" text-decoration="none" x="445" y="508.5">«constructor»-Current()</text></g></g><g transform="translate(-142,-38) scale(1,1)"><g><path fill="none" stroke="none"></path><text fill="#000000" stroke="none" font-family="Arial" font-size="13px" font-style="normal" font-weight="normal" text-decoration="none" x="445" y="523.5">+getUnit(): Unit</text><path fill="none" stroke="#000000" d="M 445 523.5 L 533 523.5" stroke-miterlimit="10"></path></g></g><g transform="translate(-142,-38) scale(1,1)"><path fill="none" stroke="#000000" d="M 580 455 Q 610 436 659 179" stroke-miterlimit="10"></path></g><g transform="translate(-142,-38) scale(1,1)"><path fill="#FFFFFF" stroke="none" d="M 663.4633726326753 200.54247675505036 L 659 179 L 646.9232496584775 197.38891245257685"></path></g><g transform="translate(-142,-38) scale(1,1)"><path fill="none" stroke="#000000" d="M 663.4633726326753 200.54247675505036 L 659 179 L 646.9232496584775 197.38891245257685 L 663.4633726326753 200.54247675505036" stroke-miterlimit="10"></path></g><g transform="translate(-142,-38) scale(1,1)"><rect fill="#C0C0C0" stroke="none" x="719" y="463" width="133" height="87" opacity="0.2"></rect></g><g transform="translate(-142,-38) scale(1,1)"><rect fill="#ffffff" stroke="none" x="712" y="456" width="133" height="87"></rect></g><g transform="translate(-142,-38) scale(1,1)"><path fill="none" stroke="#000000" d="M 712 456 L 845 456 L 845 543 L 712 543 L 712 456 Z Z" stroke-miterlimit="10"></path></g><g transform="translate(-142,-38) scale(1,1)"><path fill="none" stroke="#000000" d="M 712 481 L 845 481" stroke-miterlimit="10"></path></g><g transform="translate(-142,-38) scale(1,1)"><path fill="none" stroke="#000000" d="M 712 491 L 845 491" stroke-miterlimit="10"></path></g><g transform="translate(-142,-38) scale(1,1)"><g><path fill="none" stroke="none"></path><text fill="#000000" stroke="none" font-family="Arial" font-size="13px" font-style="normal" font-weight="bold" text-decoration="none" x="762" y="475.5">Angle</text></g></g><g transform="translate(-142,-38) scale(1,1)"><g><path fill="none" stroke="none"></path><text fill="#000000" stroke="none" font-family="Arial" font-size="13px" font-style="normal" font-weight="normal" text-decoration="none" x="717" y="508.5">«constructor»-Angle()</text></g></g><g transform="translate(-142,-38) scale(1,1)"><g><path fill="none" stroke="none"></path><text fill="#000000" stroke="none" font-family="Arial" font-size="13px" font-style="normal" font-weight="normal" text-decoration="none" x="717" y="523.5">+getUnit(): Unit</text><path fill="none" stroke="#000000" d="M 717 523.5 L 805 523.5" stroke-miterlimit="10"></path></g></g><g transform="translate(-142,-38) scale(1,1)"><path fill="none" stroke="#000000" d="M 718 455 Q 692 436 676 179" stroke-miterlimit="10"></path></g><g transform="translate(-142,-38) scale(1,1)"><path fill="#FFFFFF" stroke="none" d="M 685.6657133305476 198.76294476568899 L 676 179 L 668.8601791810015 199.8092037010693"></path></g><g transform="translate(-142,-38) scale(1,1)"><path fill="none" stroke="#000000" d="M 685.6657133305476 198.76294476568899 L 676 179 L 668.8601791810015 199.8092037010693 L 685.6657133305476 198.76294476568899" stroke-miterlimit="10"></path></g><g transform="translate(-142,-38) scale(1,1)"><rect fill="#C0C0C0" stroke="none" x="999" y="463" width="139" height="87" opacity="0.2"></rect></g><g transform="translate(-142,-38) scale(1,1)"><rect fill="#ffffff" stroke="none" x="992" y="456" width="139" height="87"></rect></g><g transform="translate(-142,-38) scale(1,1)"><path fill="none" stroke="#000000" d="M 992 456 L 1131 456 L 1131 543 L 992 543 L 992 456 Z Z" stroke-miterlimit="10"></path></g><g transform="translate(-142,-38) scale(1,1)"><path fill="none" stroke="#000000" d="M 992 481 L 1131 481" stroke-miterlimit="10"></path></g><g transform="translate(-142,-38) scale(1,1)"><path fill="none" stroke="#000000" d="M 992 491 L 1131 491" stroke-miterlimit="10"></path></g><g transform="translate(-142,-38) scale(1,1)"><g><path fill="none" stroke="none"></path><text fill="#000000" stroke="none" font-family="Arial" font-size="13px" font-style="normal" font-weight="bold" text-decoration="none" x="1042" y="475.5">NoUnit</text></g></g><g transform="translate(-142,-38) scale(1,1)"><g><path fill="none" stroke="none"></path><text fill="#000000" stroke="none" font-family="Arial" font-size="13px" font-style="normal" font-weight="normal" text-decoration="none" x="997" y="508.5">«constructor»-NoUnit()</text></g></g><g transform="translate(-142,-38) scale(1,1)"><g><path fill="none" stroke="none"></path><text fill="#000000" stroke="none" font-family="Arial" font-size="13px" font-style="normal" font-weight="normal" text-decoration="none" x="997" y="523.5">+getUnit(): Unit</text><path fill="none" stroke="#000000" d="M 997 523.5 L 1085 523.5" stroke-miterlimit="10"></path></g></g><g transform="translate(-142,-38) scale(1,1)"><path fill="none" stroke="#000000" d="M 991 484 Q 771 436 692 179" stroke-miterlimit="10"></path></g><g transform="translate(-142,-38) scale(1,1)"><path fill="#FFFFFF" stroke="none" d="M 706.0194994987221 195.95445763819444 L 692 179 L 689.9246711970804 200.90189513169517"></path></g><g transform="translate(-142,-38) scale(1,1)"><path fill="none" stroke="#000000" d="M 706.0194994987221 195.95445763819444 L 692 179 L 689.9246711970804 200.90189513169517 L 706.0194994987221 195.95445763819444" stroke-miterlimit="10"></path></g></g></svg>