<svg version="1.1" xmlns="http://www.w3.org/2000/svg" xmlns:xlink="http://www.w3.org/1999/xlink" width="909" height="345"><defs></defs><g><g transform="translate(-118,-142) scale(1,1)"><rect fill="#C0C0C0" stroke="none" x="639" y="159" width="385" height="325" opacity="0.2"></rect></g><g transform="translate(-118,-142) scale(1,1)"><rect fill="#ffffff" stroke="none" x="632" y="152" width="385" height="325"></rect></g><g transform="translate(-118,-142) scale(1,1)"><path fill="none" stroke="#000000" d="M 632 152 L 1017 152 L 1017 477 L 632 477 L 632 152 Z Z" stroke-miterlimit="10"></path></g><g transform="translate(-118,-142) scale(1,1)"><path fill="none" stroke="#000000" d="M 632 177 L 1017 177" stroke-miterlimit="10"></path></g><g transform="translate(-118,-142) scale(1,1)"><path fill="none" stroke="#000000" d="M 632 275 L 1017 275" stroke-miterlimit="10"></path></g><g transform="translate(-118,-142) scale(1,1)"><g><path fill="none" stroke="none"></path><text fill="#000000" stroke="none" font-family="Arial" font-size="13px" font-style="normal" font-weight="bold" text-decoration="none" x="813" y="171.5">PT1</text></g></g><g transform="translate(-118,-142) scale(1,1)"><g><path fill="none" stroke="none"></path><text fill="#000000" stroke="none" font-family="Arial" font-size="13px" font-style="normal" font-weight="normal" text-decoration="none" x="637" y="194.5">-K: Number</text></g></g><g transform="translate(-118,-142) scale(1,1)"><g><path fill="none" stroke="none"></path><text fill="#000000" stroke="none" font-family="Arial" font-size="13px" font-style="normal" font-weight="normal" text-decoration="none" x="637" y="209.5">-T: Number</text></g></g><g transform="translate(-118,-142) scale(1,1)"><g><path fill="none" stroke="none"></path><text fill="#000000" stroke="none" font-family="Arial" font-size="13px" font-style="normal" font-weight="normal" text-decoration="none" x="637" y="224.5">-dt: Number = null</text></g></g><g transform="translate(-118,-142) scale(1,1)"><g><path fill="none" stroke="none"></path><text fill="#000000" stroke="none" font-family="Arial" font-size="13px" font-style="normal" font-weight="normal" text-decoration="none" x="637" y="239.5">-Ts: Number</text></g></g><g transform="translate(-118,-142) scale(1,1)"><g><path fill="none" stroke="none"></path><text fill="#000000" stroke="none" font-family="Arial" font-size="13px" font-style="normal" font-weight="normal" text-decoration="none" x="637" y="254.5">-y0: Value = null</text></g></g><g transform="translate(-118,-142) scale(1,1)"><g><path fill="none" stroke="none"></path><text fill="#000000" stroke="none" font-family="Arial" font-size="13px" font-style="normal" font-weight="normal" text-decoration="none" x="637" y="269.5">-y1: Value = null</text></g></g><g transform="translate(-118,-142) scale(1,1)"><g><path fill="none" stroke="none"></path><text fill="#000000" stroke="none" font-family="Arial" font-size="13px" font-style="normal" font-weight="normal" text-decoration="none" x="637" y="292.5">-initValues(c: Class): void</text></g></g><g transform="translate(-118,-142) scale(1,1)"><g><path fill="none" stroke="none"></path><text fill="#000000" stroke="none" font-family="Arial" font-size="13px" font-style="normal" font-weight="normal" text-decoration="none" x="637" y="307.5">«constructor»+PT1(c: Class, K: Number, T: Number, dt: Number)</text></g></g><g transform="translate(-118,-142) scale(1,1)"><g><path fill="none" stroke="none"></path><text fill="#000000" stroke="none" font-family="Arial" font-size="13px" font-style="normal" font-weight="normal" text-decoration="none" x="637" y="322.5">«constructor»+PT1(c: Class, K: Number, T: Number)</text></g></g><g transform="translate(-118,-142) scale(1,1)"><g><path fill="none" stroke="none"></path><text fill="#000000" stroke="none" font-family="Arial" font-size="13px" font-style="normal" font-weight="normal" text-decoration="none" x="637" y="337.5">+getK(): Number</text></g></g><g transform="translate(-118,-142) scale(1,1)"><g><path fill="none" stroke="none"></path><text fill="#000000" stroke="none" font-family="Arial" font-size="13px" font-style="normal" font-weight="normal" text-decoration="none" x="637" y="352.5">+setK(k: Number): void</text></g></g><g transform="translate(-118,-142) scale(1,1)"><g><path fill="none" stroke="none"></path><text fill="#000000" stroke="none" font-family="Arial" font-size="13px" font-style="normal" font-weight="normal" text-decoration="none" x="637" y="367.5">+getT(): Number</text></g></g><g transform="translate(-118,-142) scale(1,1)"><g><path fill="none" stroke="none"></path><text fill="#000000" stroke="none" font-family="Arial" font-size="13px" font-style="normal" font-weight="normal" text-decoration="none" x="637" y="382.5">+setT(t: Number): void</text></g></g><g transform="translate(-118,-142) scale(1,1)"><g><path fill="none" stroke="none"></path><text fill="#000000" stroke="none" font-family="Arial" font-size="13px" font-style="normal" font-weight="normal" text-decoration="none" x="637" y="397.5">+getDt(): Number</text></g></g><g transform="translate(-118,-142) scale(1,1)"><g><path fill="none" stroke="none"></path><text fill="#000000" stroke="none" font-family="Arial" font-size="13px" font-style="normal" font-weight="normal" text-decoration="none" x="637" y="412.5">+setDt(dt: Number): void</text></g></g><g transform="translate(-118,-142) scale(1,1)"><g><path fill="none" stroke="none"></path><text fill="#000000" stroke="none" font-family="Arial" font-size="13px" font-style="normal" font-weight="normal" text-decoration="none" x="637" y="427.5">+getTs(): Number</text></g></g><g transform="translate(-118,-142) scale(1,1)"><g><path fill="none" stroke="none"></path><text fill="#000000" stroke="none" font-family="Arial" font-size="13px" font-style="normal" font-weight="normal" text-decoration="none" x="637" y="442.5">+setTs(ts: Number): void</text></g></g><g transform="translate(-118,-142) scale(1,1)"><g><path fill="none" stroke="none"></path><text fill="#000000" stroke="none" font-family="Arial" font-size="13px" font-style="normal" font-weight="normal" text-decoration="none" x="637" y="457.5">+runAlgorithm(u: Value): Value</text></g></g><g transform="translate(-118,-142) scale(1,1)"><path fill="#C0C0C0" stroke="none" d="M 209.5 266 C 209.5 255.5065888 218.0065888 247 228.5 247 C 238.9934112 247 247.5 255.5065888 247.5 266 C 247.5 276.4934112 238.9934112 285 228.5 285 C 218.0065888 285 209.5 276.4934112 209.5 266 Z" opacity="0.2"></path></g><g transform="translate(-118,-142) scale(1,1)"><path fill="#ffffff" stroke="none" d="M 202.5 259 C 202.5 248.5065888 211.0065888 240 221.5 240 C 231.9934112 240 240.5 248.5065888 240.5 259 C 240.5 269.4934112 231.9934112 278 221.5 278 C 211.0065888 278 202.5 269.4934112 202.5 259 Z"></path></g><g transform="translate(-118,-142) scale(1,1)"><path fill="none" stroke="#000000" d="M 202.5 259 C 202.5 248.5065888 211.0065888 240 221.5 240 C 231.9934112 240 240.5 248.5065888 240.5 259 C 240.5 269.4934112 231.9934112 278 221.5 278 C 211.0065888 278 202.5 269.4934112 202.5 259 Z" stroke-miterlimit="10"></path></g><g transform="translate(-118,-142) scale(1,1)"><path fill="none" stroke="#000000" d="M 128 303 L 315 303" stroke-miterlimit="10"></path></g><g transform="translate(-118,-142) scale(1,1)"><path fill="none" stroke="#000000" d="M 128 313 L 315 313" stroke-miterlimit="10"></path></g><g transform="translate(-118,-142) scale(1,1)"><g><path fill="none" stroke="none"></path><text fill="#000000" stroke="none" font-family="Arial" font-size="13px" font-style="normal" font-weight="bold" text-decoration="none" x="206.5" y="297.5">Plant</text></g></g><g transform="translate(-118,-142) scale(1,1)"><g><path fill="none" stroke="none"></path><text fill="#000000" stroke="none" font-family="Arial" font-size="13px" font-style="normal" font-weight="normal" text-decoration="none" x="133" y="330.5">~runAlgorithm(e: Value): Value</text></g></g><g transform="translate(-118,-142) scale(1,1)"><path fill="none" stroke="#000000" d="M 631 306 L 240.5 265.7736842105263" stroke-miterlimit="10"></path></g></g></svg>