<svg version="1.1" xmlns="http://www.w3.org/2000/svg" xmlns:xlink="http://www.w3.org/1999/xlink" width="1335" height="713"><defs></defs><g><g transform="translate(-10,-6) scale(1,1)"><rect fill="#C0C0C0" stroke="none" x="1079" y="39" width="263" height="295" opacity="0.2"></rect></g><g transform="translate(-10,-6) scale(1,1)"><rect fill="#ffffff" stroke="none" x="1072" y="32" width="263" height="295"></rect></g><g transform="translate(-10,-6) scale(1,1)"><path fill="none" stroke="#000000" d="M 1072 32 L 1335 32 L 1335 327 L 1072 327 L 1072 32 Z Z" stroke-miterlimit="10"></path></g><g transform="translate(-10,-6) scale(1,1)"><path fill="none" stroke="#000000" d="M 1072 57 L 1335 57" stroke-miterlimit="10"></path></g><g transform="translate(-10,-6) scale(1,1)"><path fill="none" stroke="#000000" d="M 1072 125 L 1335 125" stroke-miterlimit="10"></path></g><g transform="translate(-10,-6) scale(1,1)"><g><path fill="none" stroke="none"></path><text fill="#000000" stroke="none" font-family="Arial" font-size="13px" font-style="italic" font-weight="bold" text-decoration="none" x="1192.5" y="51.5">Env</text></g></g><g transform="translate(-10,-6) scale(1,1)"><g><path fill="none" stroke="none"></path><text fill="#000000" stroke="none" font-family="Arial" font-size="13px" font-style="normal" font-weight="normal" text-decoration="none" x="1077" y="74.5">-interval: long = 1</text></g></g><g transform="translate(-10,-6) scale(1,1)"><g><path fill="none" stroke="none"></path><text fill="#000000" stroke="none" font-family="Arial" font-size="13px" font-style="normal" font-weight="normal" text-decoration="none" x="1077" y="89.5">-timekeeper: Timer</text></g></g><g transform="translate(-10,-6) scale(1,1)"><g><path fill="none" stroke="none"></path><text fill="#000000" stroke="none" font-family="Arial" font-size="13px" font-style="normal" font-weight="normal" text-decoration="none" x="1077" y="104.5">#inputSignals: List</text></g></g><g transform="translate(-10,-6) scale(1,1)"><g><path fill="none" stroke="none"></path><text fill="#000000" stroke="none" font-family="Arial" font-size="13px" font-style="normal" font-weight="normal" text-decoration="none" x="1077" y="119.5">#outputSignal: Output = null</text></g></g><g transform="translate(-10,-6) scale(1,1)"><g><path fill="none" stroke="none"></path><text fill="#000000" stroke="none" font-family="Arial" font-size="13px" font-style="normal" font-weight="normal" text-decoration="none" x="1077" y="142.5">«constructor»+Env(output: Output)</text></g></g><g transform="translate(-10,-6) scale(1,1)"><g><path fill="none" stroke="none"></path><text fill="#000000" stroke="none" font-family="Arial" font-size="13px" font-style="normal" font-weight="normal" text-decoration="none" x="1077" y="157.5">+setOutput(output: Output): void</text></g></g><g transform="translate(-10,-6) scale(1,1)"><g><path fill="none" stroke="none"></path><text fill="#000000" stroke="none" font-family="Arial" font-size="13px" font-style="normal" font-weight="normal" text-decoration="none" x="1077" y="172.5">+run(): void</text></g></g><g transform="translate(-10,-6) scale(1,1)"><g><path fill="none" stroke="none"></path><text fill="#000000" stroke="none" font-family="Arial" font-size="13px" font-style="normal" font-weight="normal" text-decoration="none" x="1077" y="187.5">-updateInputSignals(): void</text></g></g><g transform="translate(-10,-6) scale(1,1)"><g><path fill="none" stroke="none"></path><text fill="#000000" stroke="none" font-family="Arial" font-size="13px" font-style="normal" font-weight="normal" text-decoration="none" x="1077" y="202.5">-process(): void</text></g></g><g transform="translate(-10,-6) scale(1,1)"><g><path fill="none" stroke="none"></path><text fill="#000000" stroke="none" font-family="Arial" font-size="13px" font-style="normal" font-weight="normal" text-decoration="none" x="1077" y="217.5">#doOneIteration(): void</text></g></g><g transform="translate(-10,-6) scale(1,1)"><g><path fill="none" stroke="none"></path><text fill="#000000" stroke="none" font-family="Arial" font-size="13px" font-style="normal" font-weight="normal" text-decoration="none" x="1077" y="232.5">+runOneIteration(): void</text></g></g><g transform="translate(-10,-6) scale(1,1)"><g><path fill="none" stroke="none"></path><text fill="#000000" stroke="none" font-family="Arial" font-size="13px" font-style="normal" font-weight="normal" text-decoration="none" x="1077" y="247.5">+pause(): void</text></g></g><g transform="translate(-10,-6) scale(1,1)"><g><path fill="none" stroke="none"></path><text fill="#000000" stroke="none" font-family="Arial" font-size="13px" font-style="normal" font-weight="normal" text-decoration="none" x="1077" y="262.5">+pause(waitTime: int): void</text></g></g><g transform="translate(-10,-6) scale(1,1)"><g><path fill="none" stroke="none"></path><text fill="#000000" stroke="none" font-family="Arial" font-size="13px" font-style="normal" font-weight="normal" text-decoration="none" x="1077" y="277.5">+stop(): void</text></g></g><g transform="translate(-10,-6) scale(1,1)"><g><path fill="none" stroke="none"></path><text fill="#000000" stroke="none" font-family="Arial" font-size="13px" font-style="normal" font-weight="normal" text-decoration="none" x="1077" y="292.5">+setInterval(deltaTimeMilliseconds: int): void</text></g></g><g transform="translate(-10,-6) scale(1,1)"><g><path fill="none" stroke="none"></path><text fill="#000000" stroke="none" font-family="Arial" font-size="13px" font-style="normal" font-weight="normal" text-decoration="none" x="1077" y="307.5">+getInterval(): long</text></g></g><g transform="translate(-10,-6) scale(1,1)"><rect fill="#C0C0C0" stroke="none" x="47" y="391" width="832" height="325" opacity="0.2"></rect></g><g transform="translate(-10,-6) scale(1,1)"><rect fill="#ffffff" stroke="none" x="40" y="384" width="832" height="325"></rect></g><g transform="translate(-10,-6) scale(1,1)"><path fill="none" stroke="#000000" d="M 40 384 L 872 384 L 872 709 L 40 709 L 40 384 Z Z" stroke-miterlimit="10"></path></g><g transform="translate(-10,-6) scale(1,1)"><path fill="none" stroke="#000000" d="M 40 409 L 872 409" stroke-miterlimit="10"></path></g><g transform="translate(-10,-6) scale(1,1)"><path fill="none" stroke="#000000" d="M 40 462 L 872 462" stroke-miterlimit="10"></path></g><g transform="translate(-10,-6) scale(1,1)"><g><path fill="none" stroke="none"></path><text fill="#000000" stroke="none" font-family="Arial" font-size="13px" font-style="normal" font-weight="bold" text-decoration="none" x="418" y="403.5">EnvController</text></g></g><g transform="translate(-10,-6) scale(1,1)"><g><path fill="none" stroke="none"></path><text fill="#000000" stroke="none" font-family="Arial" font-size="13px" font-style="normal" font-weight="normal" text-decoration="none" x="45" y="426.5">-controller: Controller = null</text></g></g><g transform="translate(-10,-6) scale(1,1)"><g><path fill="none" stroke="none"></path><text fill="#000000" stroke="none" font-family="Arial" font-size="13px" font-style="normal" font-weight="normal" text-decoration="none" x="45" y="441.5">-e: Value = null</text></g></g><g transform="translate(-10,-6) scale(1,1)"><g><path fill="none" stroke="none"></path><text fill="#000000" stroke="none" font-family="Arial" font-size="13px" font-style="normal" font-weight="normal" text-decoration="none" x="45" y="456.5">-u: Value = null</text></g></g><g transform="translate(-10,-6) scale(1,1)"><g><path fill="none" stroke="none"></path><text fill="#000000" stroke="none" font-family="Arial" font-size="13px" font-style="normal" font-weight="normal" text-decoration="none" x="45" y="479.5">-initValues(c: Class): void</text></g></g><g transform="translate(-10,-6) scale(1,1)"><g><path fill="none" stroke="none"></path><text fill="#000000" stroke="none" font-family="Arial" font-size="13px" font-style="normal" font-weight="normal" text-decoration="none" x="45" y="494.5">«constructor»+EnvController(c: Class, controller: Controller, output: Output)</text></g></g><g transform="translate(-10,-6) scale(1,1)"><g><path fill="none" stroke="none"></path><text fill="#000000" stroke="none" font-family="Arial" font-size="13px" font-style="normal" font-weight="normal" text-decoration="none" x="45" y="509.5">«constructor»+EnvController(c: Class, controller: Controller, setpoint: Input, feedback: Input, output: Output)</text></g></g><g transform="translate(-10,-6) scale(1,1)"><g><path fill="none" stroke="none"></path><text fill="#000000" stroke="none" font-family="Arial" font-size="13px" font-style="normal" font-weight="normal" text-decoration="none" x="45" y="524.5">+createEnvPID(c: Class, k: Number, Ti: Number, Td: Number, dt: Number, setpoit: Input, feedback: Input, output: Output): EnvController</text><path fill="none" stroke="#000000" d="M 45 524.5 L 827 524.5" stroke-miterlimit="10"></path></g></g><g transform="translate(-10,-6) scale(1,1)"><g><path fill="none" stroke="none"></path><text fill="#000000" stroke="none" font-family="Arial" font-size="13px" font-style="normal" font-weight="normal" text-decoration="none" x="45" y="539.5">+createEnvPI(c: Class, k: Number, Ti: Number, dt: Number, setpoint: Input, feedback: Input, output: Output): EnvController</text><path fill="none" stroke="#000000" d="M 45 539.5 L 750 539.5" stroke-miterlimit="10"></path></g></g><g transform="translate(-10,-6) scale(1,1)"><g><path fill="none" stroke="none"></path><text fill="#000000" stroke="none" font-family="Arial" font-size="13px" font-style="normal" font-weight="normal" text-decoration="none" x="45" y="554.5">+createEnvPD(c: Class, k: Number, Td: Number, dt: Number, setpoint: Input, feedback: Input, output: Output): EnvController</text><path fill="none" stroke="#000000" d="M 45 554.5 L 760 554.5" stroke-miterlimit="10"></path></g></g><g transform="translate(-10,-6) scale(1,1)"><g><path fill="none" stroke="none"></path><text fill="#000000" stroke="none" font-family="Arial" font-size="13px" font-style="normal" font-weight="normal" text-decoration="none" x="45" y="569.5">+createEnvController(c: Class, k: Number, Ti: Number, Td: Number, dt: Number, setpoint: Input, feedback: Input, output: Output): EnvController</text><path fill="none" stroke="#000000" d="M 45 569.5 L 868 569.5" stroke-miterlimit="10"></path></g></g><g transform="translate(-10,-6) scale(1,1)"><g><path fill="none" stroke="none"></path><text fill="#000000" stroke="none" font-family="Arial" font-size="13px" font-style="normal" font-weight="normal" text-decoration="none" x="45" y="584.5">+createEnvController(c: Class, k: Number, Ti: Number, dt: Number, setpoint: Input, feedback: Input, output: Output): EnvController</text><path fill="none" stroke="#000000" d="M 45 584.5 L 793 584.5" stroke-miterlimit="10"></path></g></g><g transform="translate(-10,-6) scale(1,1)"><g><path fill="none" stroke="none"></path><text fill="#000000" stroke="none" font-family="Arial" font-size="13px" font-style="normal" font-weight="normal" text-decoration="none" x="45" y="599.5">+setController(controller: Controller): void</text></g></g><g transform="translate(-10,-6) scale(1,1)"><g><path fill="none" stroke="none"></path><text fill="#000000" stroke="none" font-family="Arial" font-size="13px" font-style="normal" font-weight="normal" text-decoration="none" x="45" y="614.5">+getController(): Controller</text></g></g><g transform="translate(-10,-6) scale(1,1)"><g><path fill="none" stroke="none"></path><text fill="#000000" stroke="none" font-family="Arial" font-size="13px" font-style="normal" font-weight="normal" text-decoration="none" x="45" y="629.5">#doOneIteration(): void</text></g></g><g transform="translate(-10,-6) scale(1,1)"><g><path fill="none" stroke="none"></path><text fill="#000000" stroke="none" font-family="Arial" font-size="13px" font-style="normal" font-weight="normal" text-decoration="none" x="45" y="644.5">+getFeedback(): Value</text></g></g><g transform="translate(-10,-6) scale(1,1)"><g><path fill="none" stroke="none"></path><text fill="#000000" stroke="none" font-family="Arial" font-size="13px" font-style="normal" font-weight="normal" text-decoration="none" x="45" y="659.5">+setFeedback(feedback: Input): void</text></g></g><g transform="translate(-10,-6) scale(1,1)"><g><path fill="none" stroke="none"></path><text fill="#000000" stroke="none" font-family="Arial" font-size="13px" font-style="normal" font-weight="normal" text-decoration="none" x="45" y="674.5">+getSetpoint(): Value</text></g></g><g transform="translate(-10,-6) scale(1,1)"><g><path fill="none" stroke="none"></path><text fill="#000000" stroke="none" font-family="Arial" font-size="13px" font-style="normal" font-weight="normal" text-decoration="none" x="45" y="689.5">+setSetpoint(setpoint: Input): void</text></g></g><g transform="translate(-10,-6) scale(1,1)"><path fill="none" stroke="#000000" d="M 788 383 L 1071 244" stroke-miterlimit="10"></path></g><g transform="translate(-10,-6) scale(1,1)"><path fill="#FFFFFF" stroke="none" d="M 1056.468054910377 260.5173415509937 L 1071 244 L 1049.0448388654152 245.40388730117905"></path></g><g transform="translate(-10,-6) scale(1,1)"><path fill="none" stroke="#000000" d="M 1056.468054910377 260.5173415509937 L 1071 244 L 1049.0448388654152 245.40388730117905 L 1056.468054910377 260.5173415509937" stroke-miterlimit="10"></path></g><g transform="translate(-10,-6) scale(1,1)"><rect fill="#C0C0C0" stroke="none" x="39" y="151" width="585" height="205" opacity="0.2"></rect></g><g transform="translate(-10,-6) scale(1,1)"><rect fill="#ffffff" stroke="none" x="32" y="144" width="585" height="205"></rect></g><g transform="translate(-10,-6) scale(1,1)"><path fill="none" stroke="#000000" d="M 32 144 L 617 144 L 617 349 L 32 349 L 32 144 Z Z" stroke-miterlimit="10"></path></g><g transform="translate(-10,-6) scale(1,1)"><path fill="none" stroke="#000000" d="M 32 169 L 617 169" stroke-miterlimit="10"></path></g><g transform="translate(-10,-6) scale(1,1)"><path fill="none" stroke="#000000" d="M 32 207 L 617 207" stroke-miterlimit="10"></path></g><g transform="translate(-10,-6) scale(1,1)"><g><path fill="none" stroke="none"></path><text fill="#000000" stroke="none" font-family="Arial" font-size="13px" font-style="normal" font-weight="bold" text-decoration="none" x="299" y="163.5">EnvPlant</text></g></g><g transform="translate(-10,-6) scale(1,1)"><g><path fill="none" stroke="none"></path><text fill="#000000" stroke="none" font-family="Arial" font-size="13px" font-style="normal" font-weight="normal" text-decoration="none" x="37" y="186.5">-plant: Plant = null</text></g></g><g transform="translate(-10,-6) scale(1,1)"><g><path fill="none" stroke="none"></path><text fill="#000000" stroke="none" font-family="Arial" font-size="13px" font-style="normal" font-weight="normal" text-decoration="none" x="37" y="201.5">-x: Value = null</text></g></g><g transform="translate(-10,-6) scale(1,1)"><g><path fill="none" stroke="none"></path><text fill="#000000" stroke="none" font-family="Arial" font-size="13px" font-style="normal" font-weight="normal" text-decoration="none" x="37" y="224.5">-initValues(c: Class): void</text></g></g><g transform="translate(-10,-6) scale(1,1)"><g><path fill="none" stroke="none"></path><text fill="#000000" stroke="none" font-family="Arial" font-size="13px" font-style="normal" font-weight="normal" text-decoration="none" x="37" y="239.5">«constructor»+EnvPlant(c: Class, plant: Plant, output: Output)</text></g></g><g transform="translate(-10,-6) scale(1,1)"><g><path fill="none" stroke="none"></path><text fill="#000000" stroke="none" font-family="Arial" font-size="13px" font-style="normal" font-weight="normal" text-decoration="none" x="37" y="254.5">«constructor»+EnvPlant(c: Class, plant: Plant, input: Input, output: Output)</text></g></g><g transform="translate(-10,-6) scale(1,1)"><g><path fill="none" stroke="none"></path><text fill="#000000" stroke="none" font-family="Arial" font-size="13px" font-style="normal" font-weight="normal" text-decoration="none" x="37" y="269.5">+createEnvPT1(c: Class, K: Number, T: Number, dt: Number, input: Input, output: Output): EnvPlant</text><path fill="none" stroke="#000000" d="M 37 269.5 L 613 269.5" stroke-miterlimit="10"></path></g></g><g transform="translate(-10,-6) scale(1,1)"><g><path fill="none" stroke="none"></path><text fill="#000000" stroke="none" font-family="Arial" font-size="13px" font-style="normal" font-weight="normal" text-decoration="none" x="37" y="284.5">+setPlant(plant: Plant): void</text></g></g><g transform="translate(-10,-6) scale(1,1)"><g><path fill="none" stroke="none"></path><text fill="#000000" stroke="none" font-family="Arial" font-size="13px" font-style="normal" font-weight="normal" text-decoration="none" x="37" y="299.5">+getPlant(): Plant</text></g></g><g transform="translate(-10,-6) scale(1,1)"><g><path fill="none" stroke="none"></path><text fill="#000000" stroke="none" font-family="Arial" font-size="13px" font-style="normal" font-weight="normal" text-decoration="none" x="37" y="314.5">#doOneIteration(): void</text></g></g><g transform="translate(-10,-6) scale(1,1)"><g><path fill="none" stroke="none"></path><text fill="#000000" stroke="none" font-family="Arial" font-size="13px" font-style="normal" font-weight="normal" text-decoration="none" x="37" y="329.5">+setInput(input: Input): void</text></g></g><g transform="translate(-10,-6) scale(1,1)"><path fill="none" stroke="#000000" d="M 618 224 L 1071 189" stroke-miterlimit="10"></path></g><g transform="translate(-10,-6) scale(1,1)"><path fill="#FFFFFF" stroke="none" d="M 1051.383590832908 198.95974354033424 L 1071 189 L 1050.08650185917 182.17170625166855"></path></g><g transform="translate(-10,-6) scale(1,1)"><path fill="none" stroke="#000000" d="M 1051.383590832908 198.95974354033424 L 1071 189 L 1050.08650185917 182.17170625166855 L 1051.383590832908 198.95974354033424" stroke-miterlimit="10"></path></g><g transform="translate(-10,-6) scale(1,1)"><rect fill="#C0C0C0" stroke="none" x="983" y="503" width="340" height="102" opacity="0.2"></rect></g><g transform="translate(-10,-6) scale(1,1)"><rect fill="#ffffff" stroke="none" x="976" y="496" width="340" height="102"></rect></g><g transform="translate(-10,-6) scale(1,1)"><path fill="none" stroke="#000000" d="M 976 496 L 1316 496 L 1316 598 L 976 598 L 976 496 Z Z" stroke-miterlimit="10"></path></g><g transform="translate(-10,-6) scale(1,1)"><path fill="none" stroke="#000000" d="M 976 521 L 1316 521" stroke-miterlimit="10"></path></g><g transform="translate(-10,-6) scale(1,1)"><path fill="none" stroke="#000000" d="M 976 531 L 1316 531" stroke-miterlimit="10"></path></g><g transform="translate(-10,-6) scale(1,1)"><g><path fill="none" stroke="none"></path><text fill="#000000" stroke="none" font-family="Arial" font-size="13px" font-style="normal" font-weight="bold" text-decoration="none" x="1105.5" y="515.5">Environmental</text></g></g><g transform="translate(-10,-6) scale(1,1)"><g><path fill="none" stroke="none"></path><text fill="#000000" stroke="none" font-family="Arial" font-size="13px" font-style="normal" font-weight="normal" text-decoration="none" x="981" y="548.5">«constructor»+Environmental(input: Input, output: Output)</text></g></g><g transform="translate(-10,-6) scale(1,1)"><g><path fill="none" stroke="none"></path><text fill="#000000" stroke="none" font-family="Arial" font-size="13px" font-style="normal" font-weight="normal" text-decoration="none" x="981" y="563.5">+addInput(input: Input): void</text></g></g><g transform="translate(-10,-6) scale(1,1)"><g><path fill="none" stroke="none"></path><text fill="#000000" stroke="none" font-family="Arial" font-size="13px" font-style="normal" font-weight="normal" text-decoration="none" x="981" y="578.5">+addInput(signal: Signal): void</text></g></g><g transform="translate(-10,-6) scale(1,1)"><path fill="none" stroke="#000000" d="M 1153 495 Q 1160 440 1178 328" stroke-miterlimit="10"></path></g><g transform="translate(-10,-6) scale(1,1)"><path fill="#FFFFFF" stroke="none" d="M 1183.0871816770618 349.40375160070226 L 1178 328 L 1166.4624427612894 346.7319185606674"></path></g><g transform="translate(-10,-6) scale(1,1)"><path fill="none" stroke="#000000" d="M 1183.0871816770618 349.40375160070226 L 1178 328 L 1166.4624427612894 346.7319185606674 L 1183.0871816770618 349.40375160070226" stroke-miterlimit="10"></path></g><g transform="translate(-10,-6) scale(1,1)"><rect fill="#C0C0C0" stroke="none" x="27" y="39" width="310" height="72" opacity="0.2"></rect></g><g transform="translate(-10,-6) scale(1,1)"><rect fill="#ffffff" stroke="none" x="20" y="32" width="310" height="72"></rect></g><g transform="translate(-10,-6) scale(1,1)"><path fill="none" stroke="#000000" d="M 20 32 L 330 32 L 330 104 L 20 104 L 20 32 Z Z" stroke-miterlimit="10"></path></g><g transform="translate(-10,-6) scale(1,1)"><path fill="none" stroke="#000000" d="M 20 57 L 330 57" stroke-miterlimit="10"></path></g><g transform="translate(-10,-6) scale(1,1)"><path fill="none" stroke="#000000" d="M 20 67 L 330 67" stroke-miterlimit="10"></path></g><g transform="translate(-10,-6) scale(1,1)"><g><path fill="none" stroke="none"></path><text fill="#000000" stroke="none" font-family="Arial" font-size="13px" font-style="normal" font-weight="bold" text-decoration="none" x="105.5" y="51.5">EnvironmentalException</text></g></g><g transform="translate(-10,-6) scale(1,1)"><g><path fill="none" stroke="none"></path><text fill="#000000" stroke="none" font-family="Arial" font-size="13px" font-style="normal" font-weight="normal" text-decoration="none" x="25" y="84.5">«constructor»+EnvironmentalException(msg: String)</text></g></g><g transform="translate(-10,-6) scale(1,1)"><path fill="#C0C0C0" stroke="none" d="M 715.5 42 C 715.5 31.5065888 724.0065888 23 734.5 23 C 744.9934112 23 753.5 31.5065888 753.5 42 C 753.5 52.4934112 744.9934112 61 734.5 61 C 724.0065888 61 715.5 52.4934112 715.5 42 Z" opacity="0.2"></path></g><g transform="translate(-10,-6) scale(1,1)"><path fill="#ffffff" stroke="none" d="M 708.5 35 C 708.5 24.5065888 717.0065888 16 727.5 16 C 737.9934112 16 746.5 24.5065888 746.5 35 C 746.5 45.4934112 737.9934112 54 727.5 54 C 717.0065888 54 708.5 45.4934112 708.5 35 Z"></path></g><g transform="translate(-10,-6) scale(1,1)"><path fill="none" stroke="#000000" d="M 708.5 35 C 708.5 24.5065888 717.0065888 16 727.5 16 C 737.9934112 16 746.5 24.5065888 746.5 35 C 746.5 45.4934112 737.9934112 54 727.5 54 C 717.0065888 54 708.5 45.4934112 708.5 35 Z" stroke-miterlimit="10"></path></g><g transform="translate(-10,-6) scale(1,1)"><path fill="none" stroke="#000000" d="M 632 79 L 823 79" stroke-miterlimit="10"></path></g><g transform="translate(-10,-6) scale(1,1)"><path fill="none" stroke="#000000" d="M 632 89 L 823 89" stroke-miterlimit="10"></path></g><g transform="translate(-10,-6) scale(1,1)"><g><path fill="none" stroke="none"></path><text fill="#000000" stroke="none" font-family="Arial" font-size="13px" font-style="normal" font-weight="bold" text-decoration="none" x="701.5" y="73.5">Operable</text></g></g><g transform="translate(-10,-6) scale(1,1)"><g><path fill="none" stroke="none"></path><text fill="#000000" stroke="none" font-family="Arial" font-size="13px" font-style="normal" font-weight="normal" text-decoration="none" x="637" y="106.5">~run(): void</text></g></g><g transform="translate(-10,-6) scale(1,1)"><g><path fill="none" stroke="none"></path><text fill="#000000" stroke="none" font-family="Arial" font-size="13px" font-style="normal" font-weight="normal" text-decoration="none" x="637" y="121.5">~pause(): void</text></g></g><g transform="translate(-10,-6) scale(1,1)"><g><path fill="none" stroke="none"></path><text fill="#000000" stroke="none" font-family="Arial" font-size="13px" font-style="normal" font-weight="normal" text-decoration="none" x="637" y="136.5">~pause(waitTime: int): void</text></g></g><g transform="translate(-10,-6) scale(1,1)"><g><path fill="none" stroke="none"></path><text fill="#000000" stroke="none" font-family="Arial" font-size="13px" font-style="normal" font-weight="normal" text-decoration="none" x="637" y="151.5">~stop(): void</text></g></g><g transform="translate(-10,-6) scale(1,1)"><g><path fill="none" stroke="none"></path><text fill="#000000" stroke="none" font-family="Arial" font-size="13px" font-style="normal" font-weight="normal" text-decoration="none" x="637" y="166.5">~setInterval(deltaTime: int): void</text></g></g><g transform="translate(-10,-6) scale(1,1)"><g><path fill="none" stroke="none"></path><text fill="#000000" stroke="none" font-family="Arial" font-size="13px" font-style="normal" font-weight="normal" text-decoration="none" x="637" y="181.5">~getInterval(): long</text></g></g><g transform="translate(-10,-6) scale(1,1)"><path fill="none" stroke="#000000" d="M 1071 157 L 746.5 51.48453608247422" stroke-miterlimit="10"></path></g></g></svg>