<svg version="1.1" xmlns="http://www.w3.org/2000/svg" xmlns:xlink="http://www.w3.org/1999/xlink" width="69" height="59"><defs></defs><g><g transform="translate(-10,-14.5) scale(1,1)"><rect fill="#C0C0C0" stroke="none" x="27" y="31.5" width="19.6" height="15" opacity="0.2"></rect></g><g transform="translate(-10,-14.5) scale(1,1)"><rect fill="#C0C0C0" stroke="none" x="27" y="45.5" width="49" height="25" opacity="0.2"></rect></g><g transform="translate(-10,-14.5) scale(1,1)"><rect fill="#ffffff" stroke="none" x="20" y="39.5" width="49" height="24"></rect></g><g transform="translate(-10,-14.5) scale(1,1)"><path fill="none" stroke="#000000" d="M 20 39.5 L 69 39.5 L 69 63.5 L 20 63.5 L 20 39.5 Z Z" stroke-miterlimit="10"></path></g><g transform="translate(-10,-14.5) scale(1,1)"><rect fill="#ffffff" stroke="none" x="20" y="24.5" width="19.6" height="15"></rect></g><g transform="translate(-10,-14.5) scale(1,1)"><path fill="none" stroke="#000000" d="M 20 24.5 L 39.6 24.5 L 39.6 39.5 L 20 39.5 L 20 24.5 Z Z" stroke-miterlimit="10"></path></g><g transform="translate(-10,-14.5) scale(1,1)"><rect fill="#ffffff" stroke="none" x="20" y="38.5" width="49" height="25"></rect></g><g transform="translate(-10,-14.5) scale(1,1)"><path fill="none" stroke="#000000" d="M 20 38.5 L 69 38.5 L 69 63.5 L 20 63.5 L 20 38.5 Z Z" stroke-miterlimit="10"></path></g><g transform="translate(-10,-14.5) scale(1,1)"><g><path fill="none" stroke="none"></path><text fill="#000000" stroke="none" font-family="Arial" font-size="13px" font-style="normal" font-weight="bold" text-decoration="none" x="29" y="59">ciayn</text></g></g></g></svg>