<svg version="1.1" xmlns="http://www.w3.org/2000/svg" xmlns:xlink="http://www.w3.org/1999/xlink" width="2201" height="851"><defs></defs><g><g transform="translate(-14,-22) scale(1,1)"><rect fill="#C0C0C0" stroke="none" x="487" y="679" width="385" height="175" opacity="0.2"></rect></g><g transform="translate(-14,-22) scale(1,1)"><rect fill="#ffffff" stroke="none" x="480" y="672" width="385" height="175"></rect></g><g transform="translate(-14,-22) scale(1,1)"><path fill="none" stroke="#000000" d="M 480 672 L 865 672 L 865 847 L 480 847 L 480 672 Z Z" stroke-miterlimit="10"></path></g><g transform="translate(-14,-22) scale(1,1)"><path fill="none" stroke="#000000" d="M 480 697 L 865 697" stroke-miterlimit="10"></path></g><g transform="translate(-14,-22) scale(1,1)"><path fill="none" stroke="#000000" d="M 480 735 L 865 735" stroke-miterlimit="10"></path></g><g transform="translate(-14,-22) scale(1,1)"><g><path fill="none" stroke="none"></path><text fill="#000000" stroke="none" font-family="Arial" font-size="13px" font-style="normal" font-weight="bold" text-decoration="none" x="663.5" y="691.5">PD</text></g></g><g transform="translate(-14,-22) scale(1,1)"><g><path fill="none" stroke="none"></path><text fill="#000000" stroke="none" font-family="Arial" font-size="13px" font-style="normal" font-weight="normal" text-decoration="none" x="485" y="714.5">-k: Number</text></g></g><g transform="translate(-14,-22) scale(1,1)"><g><path fill="none" stroke="none"></path><text fill="#000000" stroke="none" font-family="Arial" font-size="13px" font-style="normal" font-weight="normal" text-decoration="none" x="485" y="729.5">-up: Value = null</text></g></g><g transform="translate(-14,-22) scale(1,1)"><g><path fill="none" stroke="none"></path><text fill="#000000" stroke="none" font-family="Arial" font-size="13px" font-style="normal" font-weight="normal" text-decoration="none" x="485" y="752.5">«constructor»+PD(c: Class, k: Number, Td: Number, dt: Number)</text></g></g><g transform="translate(-14,-22) scale(1,1)"><g><path fill="none" stroke="none"></path><text fill="#000000" stroke="none" font-family="Arial" font-size="13px" font-style="normal" font-weight="normal" text-decoration="none" x="485" y="767.5">«constructor»+PD(c: Class, k: Number, Td: Number)</text></g></g><g transform="translate(-14,-22) scale(1,1)"><g><path fill="none" stroke="none"></path><text fill="#000000" stroke="none" font-family="Arial" font-size="13px" font-style="normal" font-weight="normal" text-decoration="none" x="485" y="782.5">-initValues(c: Class): void</text></g></g><g transform="translate(-14,-22) scale(1,1)"><g><path fill="none" stroke="none"></path><text fill="#000000" stroke="none" font-family="Arial" font-size="13px" font-style="normal" font-weight="normal" text-decoration="none" x="485" y="797.5">+runAlgorithm(e: Value): Value</text></g></g><g transform="translate(-14,-22) scale(1,1)"><g><path fill="none" stroke="none"></path><text fill="#000000" stroke="none" font-family="Arial" font-size="13px" font-style="normal" font-weight="normal" text-decoration="none" x="485" y="812.5">+getK(): Number</text></g></g><g transform="translate(-14,-22) scale(1,1)"><g><path fill="none" stroke="none"></path><text fill="#000000" stroke="none" font-family="Arial" font-size="13px" font-style="normal" font-weight="normal" text-decoration="none" x="485" y="827.5">+setK(k: Number): void</text></g></g><g transform="translate(-14,-22) scale(1,1)"><rect fill="#C0C0C0" stroke="none" x="1543" y="695" width="375" height="175" opacity="0.2"></rect></g><g transform="translate(-14,-22) scale(1,1)"><rect fill="#ffffff" stroke="none" x="1536" y="688" width="375" height="175"></rect></g><g transform="translate(-14,-22) scale(1,1)"><path fill="none" stroke="#000000" d="M 1536 688 L 1911 688 L 1911 863 L 1536 863 L 1536 688 Z Z" stroke-miterlimit="10"></path></g><g transform="translate(-14,-22) scale(1,1)"><path fill="none" stroke="#000000" d="M 1536 713 L 1911 713" stroke-miterlimit="10"></path></g><g transform="translate(-14,-22) scale(1,1)"><path fill="none" stroke="#000000" d="M 1536 751 L 1911 751" stroke-miterlimit="10"></path></g><g transform="translate(-14,-22) scale(1,1)"><g><path fill="none" stroke="none"></path><text fill="#000000" stroke="none" font-family="Arial" font-size="13px" font-style="normal" font-weight="bold" text-decoration="none" x="1717.5" y="707.5">PI</text></g></g><g transform="translate(-14,-22) scale(1,1)"><g><path fill="none" stroke="none"></path><text fill="#000000" stroke="none" font-family="Arial" font-size="13px" font-style="normal" font-weight="normal" text-decoration="none" x="1541" y="730.5">-k: Number</text></g></g><g transform="translate(-14,-22) scale(1,1)"><g><path fill="none" stroke="none"></path><text fill="#000000" stroke="none" font-family="Arial" font-size="13px" font-style="normal" font-weight="normal" text-decoration="none" x="1541" y="745.5">-up: Value = null</text></g></g><g transform="translate(-14,-22) scale(1,1)"><g><path fill="none" stroke="none"></path><text fill="#000000" stroke="none" font-family="Arial" font-size="13px" font-style="normal" font-weight="normal" text-decoration="none" x="1541" y="768.5">«constructor»+PI(c: Class, k: Number, Ti: Number, dt: Number)</text></g></g><g transform="translate(-14,-22) scale(1,1)"><g><path fill="none" stroke="none"></path><text fill="#000000" stroke="none" font-family="Arial" font-size="13px" font-style="normal" font-weight="normal" text-decoration="none" x="1541" y="783.5">«constructor»+PI(c: Class, k: Number, Ti: Number)</text></g></g><g transform="translate(-14,-22) scale(1,1)"><g><path fill="none" stroke="none"></path><text fill="#000000" stroke="none" font-family="Arial" font-size="13px" font-style="normal" font-weight="normal" text-decoration="none" x="1541" y="798.5">-initValues(c: Class): void</text></g></g><g transform="translate(-14,-22) scale(1,1)"><g><path fill="none" stroke="none"></path><text fill="#000000" stroke="none" font-family="Arial" font-size="13px" font-style="normal" font-weight="normal" text-decoration="none" x="1541" y="813.5">+runAlgorithm(e: Value): Value</text></g></g><g transform="translate(-14,-22) scale(1,1)"><g><path fill="none" stroke="none"></path><text fill="#000000" stroke="none" font-family="Arial" font-size="13px" font-style="normal" font-weight="normal" text-decoration="none" x="1541" y="828.5">+getK(): Number</text></g></g><g transform="translate(-14,-22) scale(1,1)"><g><path fill="none" stroke="none"></path><text fill="#000000" stroke="none" font-family="Arial" font-size="13px" font-style="normal" font-weight="normal" text-decoration="none" x="1541" y="843.5">+setK(k: Number): void</text></g></g><g transform="translate(-14,-22) scale(1,1)"><rect fill="#C0C0C0" stroke="none" x="31" y="119" width="459" height="385" opacity="0.2"></rect></g><g transform="translate(-14,-22) scale(1,1)"><rect fill="#ffffff" stroke="none" x="24" y="112" width="459" height="385"></rect></g><g transform="translate(-14,-22) scale(1,1)"><path fill="none" stroke="#000000" d="M 24 112 L 483 112 L 483 497 L 24 497 L 24 112 Z Z" stroke-miterlimit="10"></path></g><g transform="translate(-14,-22) scale(1,1)"><path fill="none" stroke="#000000" d="M 24 137 L 483 137" stroke-miterlimit="10"></path></g><g transform="translate(-14,-22) scale(1,1)"><path fill="none" stroke="#000000" d="M 24 280 L 483 280" stroke-miterlimit="10"></path></g><g transform="translate(-14,-22) scale(1,1)"><g><path fill="none" stroke="none"></path><text fill="#000000" stroke="none" font-family="Arial" font-size="13px" font-style="normal" font-weight="bold" text-decoration="none" x="243" y="131.5">PID</text></g></g><g transform="translate(-14,-22) scale(1,1)"><g><path fill="none" stroke="none"></path><text fill="#000000" stroke="none" font-family="Arial" font-size="13px" font-style="normal" font-weight="normal" text-decoration="none" x="29" y="154.5">-k: Number</text></g></g><g transform="translate(-14,-22) scale(1,1)"><g><path fill="none" stroke="none"></path><text fill="#000000" stroke="none" font-family="Arial" font-size="13px" font-style="normal" font-weight="normal" text-decoration="none" x="29" y="169.5">-Td: Number</text></g></g><g transform="translate(-14,-22) scale(1,1)"><g><path fill="none" stroke="none"></path><text fill="#000000" stroke="none" font-family="Arial" font-size="13px" font-style="normal" font-weight="normal" text-decoration="none" x="29" y="184.5">-Ti: Number</text></g></g><g transform="translate(-14,-22) scale(1,1)"><g><path fill="none" stroke="none"></path><text fill="#000000" stroke="none" font-family="Arial" font-size="13px" font-style="normal" font-weight="normal" text-decoration="none" x="29" y="199.5">-dt: Number</text></g></g><g transform="translate(-14,-22) scale(1,1)"><g><path fill="none" stroke="none"></path><text fill="#000000" stroke="none" font-family="Arial" font-size="13px" font-style="normal" font-weight="normal" text-decoration="none" x="29" y="214.5">-lastInput: Number</text></g></g><g transform="translate(-14,-22) scale(1,1)"><g><path fill="none" stroke="none"></path><text fill="#000000" stroke="none" font-family="Arial" font-size="13px" font-style="normal" font-weight="normal" text-decoration="none" x="29" y="229.5">-sum: Value</text></g></g><g transform="translate(-14,-22) scale(1,1)"><g><path fill="none" stroke="none"></path><text fill="#000000" stroke="none" font-family="Arial" font-size="13px" font-style="normal" font-weight="normal" text-decoration="none" x="29" y="244.5">-up: Value</text></g></g><g transform="translate(-14,-22) scale(1,1)"><g><path fill="none" stroke="none"></path><text fill="#000000" stroke="none" font-family="Arial" font-size="13px" font-style="normal" font-weight="normal" text-decoration="none" x="29" y="259.5">-ui: Value</text></g></g><g transform="translate(-14,-22) scale(1,1)"><g><path fill="none" stroke="none"></path><text fill="#000000" stroke="none" font-family="Arial" font-size="13px" font-style="normal" font-weight="normal" text-decoration="none" x="29" y="274.5">-ud: Value</text></g></g><g transform="translate(-14,-22) scale(1,1)"><g><path fill="none" stroke="none"></path><text fill="#000000" stroke="none" font-family="Arial" font-size="13px" font-style="normal" font-weight="normal" text-decoration="none" x="29" y="297.5">-initValues(c: Class): void</text></g></g><g transform="translate(-14,-22) scale(1,1)"><g><path fill="none" stroke="none"></path><text fill="#000000" stroke="none" font-family="Arial" font-size="13px" font-style="normal" font-weight="normal" text-decoration="none" x="29" y="312.5">«constructor»+PID(c: Class, k: Number, Ti: Number, Td: Number, dt: Number)</text></g></g><g transform="translate(-14,-22) scale(1,1)"><g><path fill="none" stroke="none"></path><text fill="#000000" stroke="none" font-family="Arial" font-size="13px" font-style="normal" font-weight="normal" text-decoration="none" x="29" y="327.5">«constructor»+PID(c: Class, k: Number, Ti: Number, Td: Number)</text></g></g><g transform="translate(-14,-22) scale(1,1)"><g><path fill="none" stroke="none"></path><text fill="#000000" stroke="none" font-family="Arial" font-size="13px" font-style="normal" font-weight="normal" text-decoration="none" x="29" y="342.5">+getTd(): Number</text></g></g><g transform="translate(-14,-22) scale(1,1)"><g><path fill="none" stroke="none"></path><text fill="#000000" stroke="none" font-family="Arial" font-size="13px" font-style="normal" font-weight="normal" text-decoration="none" x="29" y="357.5">+setKd(Td: Number): void</text></g></g><g transform="translate(-14,-22) scale(1,1)"><g><path fill="none" stroke="none"></path><text fill="#000000" stroke="none" font-family="Arial" font-size="13px" font-style="normal" font-weight="normal" text-decoration="none" x="29" y="372.5">+getDt(): Number</text></g></g><g transform="translate(-14,-22) scale(1,1)"><g><path fill="none" stroke="none"></path><text fill="#000000" stroke="none" font-family="Arial" font-size="13px" font-style="normal" font-weight="normal" text-decoration="none" x="29" y="387.5">+setDt(dt: Number): void</text></g></g><g transform="translate(-14,-22) scale(1,1)"><g><path fill="none" stroke="none"></path><text fill="#000000" stroke="none" font-family="Arial" font-size="13px" font-style="normal" font-weight="normal" text-decoration="none" x="29" y="402.5">+getKp(): Number</text></g></g><g transform="translate(-14,-22) scale(1,1)"><g><path fill="none" stroke="none"></path><text fill="#000000" stroke="none" font-family="Arial" font-size="13px" font-style="normal" font-weight="normal" text-decoration="none" x="29" y="417.5">+setKp(k: Number): void</text></g></g><g transform="translate(-14,-22) scale(1,1)"><g><path fill="none" stroke="none"></path><text fill="#000000" stroke="none" font-family="Arial" font-size="13px" font-style="normal" font-weight="normal" text-decoration="none" x="29" y="432.5">+getKi(): Number</text></g></g><g transform="translate(-14,-22) scale(1,1)"><g><path fill="none" stroke="none"></path><text fill="#000000" stroke="none" font-family="Arial" font-size="13px" font-style="normal" font-weight="normal" text-decoration="none" x="29" y="447.5">+setKi(Ti: Number): void</text></g></g><g transform="translate(-14,-22) scale(1,1)"><g><path fill="none" stroke="none"></path><text fill="#000000" stroke="none" font-family="Arial" font-size="13px" font-style="normal" font-weight="normal" text-decoration="none" x="29" y="462.5">#runAlgorithmPIDController(e: Value): Value</text></g></g><g transform="translate(-14,-22) scale(1,1)"><g><path fill="none" stroke="none"></path><text fill="#000000" stroke="none" font-family="Arial" font-size="13px" font-style="normal" font-weight="normal" text-decoration="none" x="29" y="477.5">+runAlgorithm(e: Value): Value</text></g></g><g transform="translate(-14,-22) scale(1,1)"><path fill="#C0C0C0" stroke="none" d="M 937.5 58 C 937.5 47.5065888 946.0065888 39 956.5 39 C 966.9934112 39 975.5 47.5065888 975.5 58 C 975.5 68.4934112 966.9934112 77 956.5 77 C 946.0065888 77 937.5 68.4934112 937.5 58 Z" opacity="0.2"></path></g><g transform="translate(-14,-22) scale(1,1)"><path fill="#ffffff" stroke="none" d="M 930.5 51 C 930.5 40.5065888 939.0065888 32 949.5 32 C 959.9934112 32 968.5 40.5065888 968.5 51 C 968.5 61.4934112 959.9934112 70 949.5 70 C 939.0065888 70 930.5 61.4934112 930.5 51 Z"></path></g><g transform="translate(-14,-22) scale(1,1)"><path fill="none" stroke="#000000" d="M 930.5 51 C 930.5 40.5065888 939.0065888 32 949.5 32 C 959.9934112 32 968.5 40.5065888 968.5 51 C 968.5 61.4934112 959.9934112 70 949.5 70 C 939.0065888 70 930.5 61.4934112 930.5 51 Z" stroke-miterlimit="10"></path></g><g transform="translate(-14,-22) scale(1,1)"><path fill="none" stroke="#000000" d="M 856 95 L 1043 95" stroke-miterlimit="10"></path></g><g transform="translate(-14,-22) scale(1,1)"><path fill="none" stroke="#000000" d="M 856 105 L 1043 105" stroke-miterlimit="10"></path></g><g transform="translate(-14,-22) scale(1,1)"><g><path fill="none" stroke="none"></path><text fill="#000000" stroke="none" font-family="Arial" font-size="13px" font-style="normal" font-weight="bold" text-decoration="none" x="922" y="89.5">Controller</text></g></g><g transform="translate(-14,-22) scale(1,1)"><g><path fill="none" stroke="none"></path><text fill="#000000" stroke="none" font-family="Arial" font-size="13px" font-style="normal" font-weight="normal" text-decoration="none" x="861" y="122.5">~runAlgorithm(e: Value): Value</text></g></g><g transform="translate(-14,-22) scale(1,1)"><path fill="none" stroke="#000000" d="M 311 111 Q 328 56 930.5 55.920212765957444" stroke-miterlimit="10"></path></g><g transform="translate(-14,-22) scale(1,1)"><rect fill="#C0C0C0" stroke="none" x="823" y="543" width="308" height="102" opacity="0.2"></rect></g><g transform="translate(-14,-22) scale(1,1)"><rect fill="#ffffff" stroke="none" x="816" y="536" width="308" height="102"></rect></g><g transform="translate(-14,-22) scale(1,1)"><path fill="none" stroke="#000000" d="M 816 536 L 1124 536 L 1124 638 L 816 638 L 816 536 Z Z" stroke-miterlimit="10"></path></g><g transform="translate(-14,-22) scale(1,1)"><path fill="none" stroke="#000000" d="M 816 561 L 1124 561" stroke-miterlimit="10"></path></g><g transform="translate(-14,-22) scale(1,1)"><path fill="none" stroke="#000000" d="M 816 571 L 1124 571" stroke-miterlimit="10"></path></g><g transform="translate(-14,-22) scale(1,1)"><g><path fill="none" stroke="none"></path><text fill="#000000" stroke="none" font-family="Arial" font-size="13px" font-style="normal" font-weight="bold" text-decoration="none" x="965.5" y="555.5">D</text></g></g><g transform="translate(-14,-22) scale(1,1)"><g><path fill="none" stroke="none"></path><text fill="#000000" stroke="none" font-family="Arial" font-size="13px" font-style="normal" font-weight="normal" text-decoration="none" x="821" y="588.5">«constructor»+D(c: Class, Td: Number, dt: Number)</text></g></g><g transform="translate(-14,-22) scale(1,1)"><g><path fill="none" stroke="none"></path><text fill="#000000" stroke="none" font-family="Arial" font-size="13px" font-style="normal" font-weight="normal" text-decoration="none" x="821" y="603.5">«constructor»+D(c: Class, Td: Number)</text></g></g><g transform="translate(-14,-22) scale(1,1)"><g><path fill="none" stroke="none"></path><text fill="#000000" stroke="none" font-family="Arial" font-size="13px" font-style="normal" font-weight="normal" text-decoration="none" x="821" y="618.5">+runAlgorithm(e: Value): Value</text></g></g><g transform="translate(-14,-22) scale(1,1)"><rect fill="#C0C0C0" stroke="none" x="663" y="194" width="363" height="235" opacity="0.2"></rect></g><g transform="translate(-14,-22) scale(1,1)"><rect fill="#ffffff" stroke="none" x="656" y="187" width="363" height="235"></rect></g><g transform="translate(-14,-22) scale(1,1)"><path fill="none" stroke="#000000" d="M 656 187 L 1019 187 L 1019 422 L 656 422 L 656 187 Z Z" stroke-miterlimit="10"></path></g><g transform="translate(-14,-22) scale(1,1)"><path fill="none" stroke="#000000" d="M 656 212 L 1019 212" stroke-miterlimit="10"></path></g><g transform="translate(-14,-22) scale(1,1)"><path fill="none" stroke="#000000" d="M 656 280 L 1019 280" stroke-miterlimit="10"></path></g><g transform="translate(-14,-22) scale(1,1)"><g><path fill="none" stroke="none"></path><text fill="#000000" stroke="none" font-family="Arial" font-size="13px" font-style="italic" font-weight="bold" text-decoration="none" x="805.5" y="206.5">DController</text></g></g><g transform="translate(-14,-22) scale(1,1)"><g><path fill="none" stroke="none"></path><text fill="#000000" stroke="none" font-family="Arial" font-size="13px" font-style="normal" font-weight="normal" text-decoration="none" x="661" y="229.5">-Td: Number</text></g></g><g transform="translate(-14,-22) scale(1,1)"><g><path fill="none" stroke="none"></path><text fill="#000000" stroke="none" font-family="Arial" font-size="13px" font-style="normal" font-weight="normal" text-decoration="none" x="661" y="244.5">-dt: Number</text></g></g><g transform="translate(-14,-22) scale(1,1)"><g><path fill="none" stroke="none"></path><text fill="#000000" stroke="none" font-family="Arial" font-size="13px" font-style="normal" font-weight="normal" text-decoration="none" x="661" y="259.5">-lastInput: Number</text></g></g><g transform="translate(-14,-22) scale(1,1)"><g><path fill="none" stroke="none"></path><text fill="#000000" stroke="none" font-family="Arial" font-size="13px" font-style="normal" font-weight="normal" text-decoration="none" x="661" y="274.5">-ud: Value</text></g></g><g transform="translate(-14,-22) scale(1,1)"><g><path fill="none" stroke="none"></path><text fill="#000000" stroke="none" font-family="Arial" font-size="13px" font-style="normal" font-weight="normal" text-decoration="none" x="661" y="297.5">«constructor»+DController(c: Class, Td: Number, dt: Number)</text></g></g><g transform="translate(-14,-22) scale(1,1)"><g><path fill="none" stroke="none"></path><text fill="#000000" stroke="none" font-family="Arial" font-size="13px" font-style="normal" font-weight="normal" text-decoration="none" x="661" y="312.5">«constructor»+DController(c: Class, Td: Number)</text></g></g><g transform="translate(-14,-22) scale(1,1)"><g><path fill="none" stroke="none"></path><text fill="#000000" stroke="none" font-family="Arial" font-size="13px" font-style="normal" font-weight="normal" text-decoration="none" x="661" y="327.5">-initD(c: Class): void</text></g></g><g transform="translate(-14,-22) scale(1,1)"><g><path fill="none" stroke="none"></path><text fill="#000000" stroke="none" font-family="Arial" font-size="13px" font-style="normal" font-weight="normal" text-decoration="none" x="661" y="342.5">+getTd(): Number</text></g></g><g transform="translate(-14,-22) scale(1,1)"><g><path fill="none" stroke="none"></path><text fill="#000000" stroke="none" font-family="Arial" font-size="13px" font-style="normal" font-weight="normal" text-decoration="none" x="661" y="357.5">+setKd(Td: Number): void</text></g></g><g transform="translate(-14,-22) scale(1,1)"><g><path fill="none" stroke="none"></path><text fill="#000000" stroke="none" font-family="Arial" font-size="13px" font-style="normal" font-weight="normal" text-decoration="none" x="661" y="372.5">+getDt(): Number</text></g></g><g transform="translate(-14,-22) scale(1,1)"><g><path fill="none" stroke="none"></path><text fill="#000000" stroke="none" font-family="Arial" font-size="13px" font-style="normal" font-weight="normal" text-decoration="none" x="661" y="387.5">+setDt(dt: Number): void</text></g></g><g transform="translate(-14,-22) scale(1,1)"><g><path fill="none" stroke="none"></path><text fill="#000000" stroke="none" font-family="Arial" font-size="13px" font-style="normal" font-weight="normal" text-decoration="none" x="661" y="402.5">+runAlgorithmDController(e: Value): Value</text></g></g><g transform="translate(-14,-22) scale(1,1)"><path fill="none" stroke="#000000" d="M 704 671 L 794 423" stroke-miterlimit="10"></path></g><g transform="translate(-14,-22) scale(1,1)"><path fill="#FFFFFF" stroke="none" d="M 794.9803416898935 444.9781466500489 L 794 423 L 779.1523097226416 439.23410279096555"></path></g><g transform="translate(-14,-22) scale(1,1)"><path fill="none" stroke="#000000" d="M 794.9803416898935 444.9781466500489 L 794 423 L 779.1523097226416 439.23410279096555 L 794.9803416898935 444.9781466500489" stroke-miterlimit="10"></path></g><g transform="translate(-14,-22) scale(1,1)"><path fill="none" stroke="#000000" d="M 946 535 L 893 423" stroke-miterlimit="10"></path></g><g transform="translate(-14,-22) scale(1,1)"><path fill="#FFFFFF" stroke="none" d="M 909.3039365867958 437.7709732845788 L 893 423 L 894.0839687463077 444.9732794948098"></path></g><g transform="translate(-14,-22) scale(1,1)"><path fill="none" stroke="#000000" d="M 909.3039365867958 437.7709732845788 L 893 423 L 894.0839687463077 444.9732794948098 L 909.3039365867958 437.7709732845788" stroke-miterlimit="10"></path></g><g transform="translate(-14,-22) scale(1,1)"><path fill="none" stroke="#000000" d="M 721 186 Q 696 160 752 116 Q 808 72 930.5 55.723404255319146" stroke-miterlimit="10"></path></g><g transform="translate(-14,-22) scale(1,1)"><rect fill="#C0C0C0" stroke="none" x="1215" y="543" width="298" height="102" opacity="0.2"></rect></g><g transform="translate(-14,-22) scale(1,1)"><rect fill="#ffffff" stroke="none" x="1208" y="536" width="298" height="102"></rect></g><g transform="translate(-14,-22) scale(1,1)"><path fill="none" stroke="#000000" d="M 1208 536 L 1506 536 L 1506 638 L 1208 638 L 1208 536 Z Z" stroke-miterlimit="10"></path></g><g transform="translate(-14,-22) scale(1,1)"><path fill="none" stroke="#000000" d="M 1208 561 L 1506 561" stroke-miterlimit="10"></path></g><g transform="translate(-14,-22) scale(1,1)"><path fill="none" stroke="#000000" d="M 1208 571 L 1506 571" stroke-miterlimit="10"></path></g><g transform="translate(-14,-22) scale(1,1)"><g><path fill="none" stroke="none"></path><text fill="#000000" stroke="none" font-family="Arial" font-size="13px" font-style="normal" font-weight="bold" text-decoration="none" x="1355.5" y="555.5">I</text></g></g><g transform="translate(-14,-22) scale(1,1)"><g><path fill="none" stroke="none"></path><text fill="#000000" stroke="none" font-family="Arial" font-size="13px" font-style="normal" font-weight="normal" text-decoration="none" x="1213" y="588.5">«constructor»+I(c: Class, Ti: Number, dt: Number)</text></g></g><g transform="translate(-14,-22) scale(1,1)"><g><path fill="none" stroke="none"></path><text fill="#000000" stroke="none" font-family="Arial" font-size="13px" font-style="normal" font-weight="normal" text-decoration="none" x="1213" y="603.5">«constructor»+I(c: Class, Ti: Number)</text></g></g><g transform="translate(-14,-22) scale(1,1)"><g><path fill="none" stroke="none"></path><text fill="#000000" stroke="none" font-family="Arial" font-size="13px" font-style="normal" font-weight="normal" text-decoration="none" x="1213" y="618.5">+runAlgorithm(e: Value): Value</text></g></g><g transform="translate(-14,-22) scale(1,1)"><rect fill="#C0C0C0" stroke="none" x="1311" y="175" width="353" height="235" opacity="0.2"></rect></g><g transform="translate(-14,-22) scale(1,1)"><rect fill="#ffffff" stroke="none" x="1304" y="168" width="353" height="235"></rect></g><g transform="translate(-14,-22) scale(1,1)"><path fill="none" stroke="#000000" d="M 1304 168 L 1657 168 L 1657 403 L 1304 403 L 1304 168 Z Z" stroke-miterlimit="10"></path></g><g transform="translate(-14,-22) scale(1,1)"><path fill="none" stroke="#000000" d="M 1304 193 L 1657 193" stroke-miterlimit="10"></path></g><g transform="translate(-14,-22) scale(1,1)"><path fill="none" stroke="#000000" d="M 1304 261 L 1657 261" stroke-miterlimit="10"></path></g><g transform="translate(-14,-22) scale(1,1)"><g><path fill="none" stroke="none"></path><text fill="#000000" stroke="none" font-family="Arial" font-size="13px" font-style="italic" font-weight="bold" text-decoration="none" x="1451" y="187.5">IController</text></g></g><g transform="translate(-14,-22) scale(1,1)"><g><path fill="none" stroke="none"></path><text fill="#000000" stroke="none" font-family="Arial" font-size="13px" font-style="normal" font-weight="normal" text-decoration="none" x="1309" y="210.5">-Ti: Number</text></g></g><g transform="translate(-14,-22) scale(1,1)"><g><path fill="none" stroke="none"></path><text fill="#000000" stroke="none" font-family="Arial" font-size="13px" font-style="normal" font-weight="normal" text-decoration="none" x="1309" y="225.5">#dt: Number</text></g></g><g transform="translate(-14,-22) scale(1,1)"><g><path fill="none" stroke="none"></path><text fill="#000000" stroke="none" font-family="Arial" font-size="13px" font-style="normal" font-weight="normal" text-decoration="none" x="1309" y="240.5">-sum: Value</text></g></g><g transform="translate(-14,-22) scale(1,1)"><g><path fill="none" stroke="none"></path><text fill="#000000" stroke="none" font-family="Arial" font-size="13px" font-style="normal" font-weight="normal" text-decoration="none" x="1309" y="255.5">-ui: Value</text></g></g><g transform="translate(-14,-22) scale(1,1)"><g><path fill="none" stroke="none"></path><text fill="#000000" stroke="none" font-family="Arial" font-size="13px" font-style="normal" font-weight="normal" text-decoration="none" x="1309" y="278.5">«constructor»+IController(c: Class, Ti: Number, dt: Number)</text></g></g><g transform="translate(-14,-22) scale(1,1)"><g><path fill="none" stroke="none"></path><text fill="#000000" stroke="none" font-family="Arial" font-size="13px" font-style="normal" font-weight="normal" text-decoration="none" x="1309" y="293.5">«constructor»+IController(c: Class, Ti: Number)</text></g></g><g transform="translate(-14,-22) scale(1,1)"><g><path fill="none" stroke="none"></path><text fill="#000000" stroke="none" font-family="Arial" font-size="13px" font-style="normal" font-weight="normal" text-decoration="none" x="1309" y="308.5">-initI(c: Class): void</text></g></g><g transform="translate(-14,-22) scale(1,1)"><g><path fill="none" stroke="none"></path><text fill="#000000" stroke="none" font-family="Arial" font-size="13px" font-style="normal" font-weight="normal" text-decoration="none" x="1309" y="323.5">+getDt(): Number</text></g></g><g transform="translate(-14,-22) scale(1,1)"><g><path fill="none" stroke="none"></path><text fill="#000000" stroke="none" font-family="Arial" font-size="13px" font-style="normal" font-weight="normal" text-decoration="none" x="1309" y="338.5">+setDt(dt: Number): void</text></g></g><g transform="translate(-14,-22) scale(1,1)"><g><path fill="none" stroke="none"></path><text fill="#000000" stroke="none" font-family="Arial" font-size="13px" font-style="normal" font-weight="normal" text-decoration="none" x="1309" y="353.5">+getKi(): Number</text></g></g><g transform="translate(-14,-22) scale(1,1)"><g><path fill="none" stroke="none"></path><text fill="#000000" stroke="none" font-family="Arial" font-size="13px" font-style="normal" font-weight="normal" text-decoration="none" x="1309" y="368.5">+setKi(Ti: Number): void</text></g></g><g transform="translate(-14,-22) scale(1,1)"><g><path fill="none" stroke="none"></path><text fill="#000000" stroke="none" font-family="Arial" font-size="13px" font-style="normal" font-weight="normal" text-decoration="none" x="1309" y="383.5">#runAlgorithmIController(e: Value): Value</text></g></g><g transform="translate(-14,-22) scale(1,1)"><path fill="none" stroke="#000000" d="M 1679 687 L 1539 404" stroke-miterlimit="10"></path></g><g transform="translate(-14,-22) scale(1,1)"><path fill="#FFFFFF" stroke="none" d="M 1555.5585863613917 418.4849307113405 L 1539 404 L 1540.466295971997 425.95108143400927"></path></g><g transform="translate(-14,-22) scale(1,1)"><path fill="none" stroke="#000000" d="M 1555.5585863613917 418.4849307113405 L 1539 404 L 1540.466295971997 425.95108143400927 L 1555.5585863613917 418.4849307113405" stroke-miterlimit="10"></path></g><g transform="translate(-14,-22) scale(1,1)"><path fill="none" stroke="#000000" d="M 1378 535 L 1432 404" stroke-miterlimit="10"></path></g><g transform="translate(-14,-22) scale(1,1)"><path fill="#FFFFFF" stroke="none" d="M 1432.0375795206578 425.999967904059 L 1432 404 L 1416.4702462430444 419.58289922473745"></path></g><g transform="translate(-14,-22) scale(1,1)"><path fill="none" stroke="#000000" d="M 1432.0375795206578 425.999967904059 L 1432 404 L 1416.4702462430444 419.58289922473745 L 1432.0375795206578 425.999967904059" stroke-miterlimit="10"></path></g><g transform="translate(-14,-22) scale(1,1)"><path fill="none" stroke="#000000" d="M 1365 167 Q 1304 104 968.5 58.18421052631579" stroke-miterlimit="10"></path></g><g transform="translate(-14,-22) scale(1,1)"><rect fill="#C0C0C0" stroke="none" x="1983" y="511" width="229" height="87" opacity="0.2"></rect></g><g transform="translate(-14,-22) scale(1,1)"><rect fill="#ffffff" stroke="none" x="1976" y="504" width="229" height="87"></rect></g><g transform="translate(-14,-22) scale(1,1)"><path fill="none" stroke="#000000" d="M 1976 504 L 2205 504 L 2205 591 L 1976 591 L 1976 504 Z Z" stroke-miterlimit="10"></path></g><g transform="translate(-14,-22) scale(1,1)"><path fill="none" stroke="#000000" d="M 1976 529 L 2205 529" stroke-miterlimit="10"></path></g><g transform="translate(-14,-22) scale(1,1)"><path fill="none" stroke="#000000" d="M 1976 539 L 2205 539" stroke-miterlimit="10"></path></g><g transform="translate(-14,-22) scale(1,1)"><g><path fill="none" stroke="none"></path><text fill="#000000" stroke="none" font-family="Arial" font-size="13px" font-style="normal" font-weight="bold" text-decoration="none" x="2086" y="523.5">P</text></g></g><g transform="translate(-14,-22) scale(1,1)"><g><path fill="none" stroke="none"></path><text fill="#000000" stroke="none" font-family="Arial" font-size="13px" font-style="normal" font-weight="normal" text-decoration="none" x="1981" y="556.5">«constructor»+P(c: Class, k: Number)</text></g></g><g transform="translate(-14,-22) scale(1,1)"><g><path fill="none" stroke="none"></path><text fill="#000000" stroke="none" font-family="Arial" font-size="13px" font-style="normal" font-weight="normal" text-decoration="none" x="1981" y="571.5">+runAlgorithm(e: Value): Value</text></g></g><g transform="translate(-14,-22) scale(1,1)"><rect fill="#C0C0C0" stroke="none" x="1839" y="231" width="284" height="160" opacity="0.2"></rect></g><g transform="translate(-14,-22) scale(1,1)"><rect fill="#ffffff" stroke="none" x="1832" y="224" width="284" height="160"></rect></g><g transform="translate(-14,-22) scale(1,1)"><path fill="none" stroke="#000000" d="M 1832 224 L 2116 224 L 2116 384 L 1832 384 L 1832 224 Z Z" stroke-miterlimit="10"></path></g><g transform="translate(-14,-22) scale(1,1)"><path fill="none" stroke="#000000" d="M 1832 249 L 2116 249" stroke-miterlimit="10"></path></g><g transform="translate(-14,-22) scale(1,1)"><path fill="none" stroke="#000000" d="M 1832 287 L 2116 287" stroke-miterlimit="10"></path></g><g transform="translate(-14,-22) scale(1,1)"><g><path fill="none" stroke="none"></path><text fill="#000000" stroke="none" font-family="Arial" font-size="13px" font-style="italic" font-weight="bold" text-decoration="none" x="1942" y="243.5">PController</text></g></g><g transform="translate(-14,-22) scale(1,1)"><g><path fill="none" stroke="none"></path><text fill="#000000" stroke="none" font-family="Arial" font-size="13px" font-style="normal" font-weight="normal" text-decoration="none" x="1837" y="266.5">-k: Number</text></g></g><g transform="translate(-14,-22) scale(1,1)"><g><path fill="none" stroke="none"></path><text fill="#000000" stroke="none" font-family="Arial" font-size="13px" font-style="normal" font-weight="normal" text-decoration="none" x="1837" y="281.5">-uk: Value</text></g></g><g transform="translate(-14,-22) scale(1,1)"><g><path fill="none" stroke="none"></path><text fill="#000000" stroke="none" font-family="Arial" font-size="13px" font-style="normal" font-weight="normal" text-decoration="none" x="1837" y="304.5">«constructor»+PController(c: Class, k: Number)</text></g></g><g transform="translate(-14,-22) scale(1,1)"><g><path fill="none" stroke="none"></path><text fill="#000000" stroke="none" font-family="Arial" font-size="13px" font-style="normal" font-weight="normal" text-decoration="none" x="1837" y="319.5">-initK(c: Class): void</text></g></g><g transform="translate(-14,-22) scale(1,1)"><g><path fill="none" stroke="none"></path><text fill="#000000" stroke="none" font-family="Arial" font-size="13px" font-style="normal" font-weight="normal" text-decoration="none" x="1837" y="334.5">+getK(): Number</text></g></g><g transform="translate(-14,-22) scale(1,1)"><g><path fill="none" stroke="none"></path><text fill="#000000" stroke="none" font-family="Arial" font-size="13px" font-style="normal" font-weight="normal" text-decoration="none" x="1837" y="349.5">+setK(k: Number): void</text></g></g><g transform="translate(-14,-22) scale(1,1)"><g><path fill="none" stroke="none"></path><text fill="#000000" stroke="none" font-family="Arial" font-size="13px" font-style="normal" font-weight="normal" text-decoration="none" x="1837" y="364.5">#runAlgorithmPController(e: Value): Value</text></g></g><g transform="translate(-14,-22) scale(1,1)"><path fill="none" stroke="#000000" d="M 2069 503 L 2013 385" stroke-miterlimit="10"></path></g><g transform="translate(-14,-22) scale(1,1)"><path fill="#FFFFFF" stroke="none" d="M 2029.320354910713 399.7528307652588 L 2013 385 L 2014.1084069529243 406.97206030454834"></path></g><g transform="translate(-14,-22) scale(1,1)"><path fill="none" stroke="#000000" d="M 2029.320354910713 399.7528307652588 L 2013 385 L 2014.1084069529243 406.97206030454834 L 2029.320354910713 399.7528307652588" stroke-miterlimit="10"></path></g><g transform="translate(-14,-22) scale(1,1)"><path fill="none" stroke="#000000" d="M 1936 223 Q 1880 104 1688 96 Q 1496 88 968.5 57.1578947368421" stroke-miterlimit="10"></path></g></g></svg>