<svg version="1.1" xmlns="http://www.w3.org/2000/svg" xmlns:xlink="http://www.w3.org/1999/xlink" width="1247" height="659"><defs></defs><g><g transform="translate(-62,-6) scale(1,1)"><path fill="#C0C0C0" stroke="none" d="M 264.5 71 C 264.5 57.7451648 275.2451648 47 288.5 47 C 301.7548352 47 312.5 57.7451648 312.5 71 C 312.5 84.2548352 301.7548352 95 288.5 95 C 275.2451648 95 264.5 84.2548352 264.5 71 Z" opacity="0.2"></path></g><g transform="translate(-62,-6) scale(1,1)"><path fill="#ffffff" stroke="none" d="M 257.5 64 C 257.5 50.7451648 268.2451648 40 281.5 40 C 294.7548352 40 305.5 50.7451648 305.5 64 C 305.5 77.2548352 294.7548352 88 281.5 88 C 268.2451648 88 257.5 77.2548352 257.5 64 Z"></path></g><g transform="translate(-62,-6) scale(1,1)"><path fill="none" stroke="#000000" d="M 257.5 64 C 257.5 50.7451648 268.2451648 40 281.5 40 C 294.7548352 40 305.5 50.7451648 305.5 64 C 305.5 77.2548352 294.7548352 88 281.5 88 C 268.2451648 88 257.5 77.2548352 257.5 64 Z" stroke-miterlimit="10"></path></g><g transform="translate(-62,-6) scale(1,1)"><path fill="none" stroke="#000000" d="M 160 113 L 403 113" stroke-miterlimit="10"></path></g><g transform="translate(-62,-6) scale(1,1)"><path fill="none" stroke="#000000" d="M 160 123 L 403 123" stroke-miterlimit="10"></path></g><g transform="translate(-62,-6) scale(1,1)"><g><path fill="none" stroke="none"></path><text fill="#000000" stroke="none" font-family="Arial" font-size="13px" font-style="normal" font-weight="bold" text-decoration="none" x="258.5" y="107.5">Callable</text></g></g><g transform="translate(-62,-6) scale(1,1)"><g><path fill="none" stroke="none"></path><text fill="#000000" stroke="none" font-family="Arial" font-size="13px" font-style="normal" font-weight="normal" text-decoration="none" x="165" y="140.5">~callbackActualValue(value: Value): void</text></g></g><g transform="translate(-62,-6) scale(1,1)"><rect fill="#C0C0C0" stroke="none" x="79" y="471" width="319" height="185" opacity="0.2"></rect></g><g transform="translate(-62,-6) scale(1,1)"><rect fill="#ffffff" stroke="none" x="72" y="464" width="319" height="185"></rect></g><g transform="translate(-62,-6) scale(1,1)"><path fill="none" stroke="#000000" d="M 72 464 L 391 464 L 391 649 L 72 649 L 72 464 Z Z" stroke-miterlimit="10"></path></g><g transform="translate(-62,-6) scale(1,1)"><path fill="none" stroke="#000000" d="M 72 489 L 391 489" stroke-miterlimit="10"></path></g><g transform="translate(-62,-6) scale(1,1)"><path fill="none" stroke="#000000" d="M 72 512 L 391 512" stroke-miterlimit="10"></path></g><g transform="translate(-62,-6) scale(1,1)"><g><path fill="none" stroke="none"></path><text fill="#000000" stroke="none" font-family="Arial" font-size="13px" font-style="normal" font-weight="bold" text-decoration="none" x="217.5" y="483.5">Input</text></g></g><g transform="translate(-62,-6) scale(1,1)"><g><path fill="none" stroke="none"></path><text fill="#000000" stroke="none" font-family="Arial" font-size="13px" font-style="normal" font-weight="normal" text-decoration="none" x="77" y="506.5">-value: Value = null</text></g></g><g transform="translate(-62,-6) scale(1,1)"><g><path fill="none" stroke="none"></path><text fill="#000000" stroke="none" font-family="Arial" font-size="13px" font-style="normal" font-weight="normal" text-decoration="none" x="77" y="529.5">«constructor»+Input(value: Value)</text></g></g><g transform="translate(-62,-6) scale(1,1)"><g><path fill="none" stroke="none"></path><text fill="#000000" stroke="none" font-family="Arial" font-size="13px" font-style="normal" font-weight="normal" text-decoration="none" x="77" y="544.5">«constructor»+Input(value: Value, updater: Updatable)</text></g></g><g transform="translate(-62,-6) scale(1,1)"><g><path fill="none" stroke="none"></path><text fill="#000000" stroke="none" font-family="Arial" font-size="13px" font-style="normal" font-weight="normal" text-decoration="none" x="77" y="559.5">+createOutput(): Output</text></g></g><g transform="translate(-62,-6) scale(1,1)"><g><path fill="none" stroke="none"></path><text fill="#000000" stroke="none" font-family="Arial" font-size="13px" font-style="normal" font-weight="normal" text-decoration="none" x="77" y="574.5">+getValue(): Value</text></g></g><g transform="translate(-62,-6) scale(1,1)"><g><path fill="none" stroke="none"></path><text fill="#000000" stroke="none" font-family="Arial" font-size="13px" font-style="normal" font-weight="normal" text-decoration="none" x="77" y="589.5">+setValue(value: Value): void</text></g></g><g transform="translate(-62,-6) scale(1,1)"><g><path fill="none" stroke="none"></path><text fill="#000000" stroke="none" font-family="Arial" font-size="13px" font-style="normal" font-weight="normal" text-decoration="none" x="77" y="604.5">+setUpdater(updater: Updatable): void</text></g></g><g transform="translate(-62,-6) scale(1,1)"><g><path fill="none" stroke="none"></path><text fill="#000000" stroke="none" font-family="Arial" font-size="13px" font-style="normal" font-weight="normal" text-decoration="none" x="77" y="619.5">+callbackActualValue(value: Value): void</text></g></g><g transform="translate(-62,-6) scale(1,1)"><path fill="none" stroke="#000000" d="M 241 463 L 279.26506024096386 88" stroke-miterlimit="10"></path></g><g transform="translate(-62,-6) scale(1,1)"><rect fill="#C0C0C0" stroke="none" x="807" y="447" width="323" height="215" opacity="0.2"></rect></g><g transform="translate(-62,-6) scale(1,1)"><rect fill="#ffffff" stroke="none" x="800" y="440" width="323" height="215"></rect></g><g transform="translate(-62,-6) scale(1,1)"><path fill="none" stroke="#000000" d="M 800 440 L 1123 440 L 1123 655 L 800 655 L 800 440 Z Z" stroke-miterlimit="10"></path></g><g transform="translate(-62,-6) scale(1,1)"><path fill="none" stroke="#000000" d="M 800 465 L 1123 465" stroke-miterlimit="10"></path></g><g transform="translate(-62,-6) scale(1,1)"><path fill="none" stroke="#000000" d="M 800 488 L 1123 488" stroke-miterlimit="10"></path></g><g transform="translate(-62,-6) scale(1,1)"><g><path fill="none" stroke="none"></path><text fill="#000000" stroke="none" font-family="Arial" font-size="13px" font-style="normal" font-weight="bold" text-decoration="none" x="942" y="459.5">Output</text></g></g><g transform="translate(-62,-6) scale(1,1)"><g><path fill="none" stroke="none"></path><text fill="#000000" stroke="none" font-family="Arial" font-size="13px" font-style="normal" font-weight="normal" text-decoration="none" x="805" y="482.5">-value: Value = null</text></g></g><g transform="translate(-62,-6) scale(1,1)"><g><path fill="none" stroke="none"></path><text fill="#000000" stroke="none" font-family="Arial" font-size="13px" font-style="normal" font-weight="normal" text-decoration="none" x="805" y="505.5">«constructor»+Output(value: Value, callback: Callable)</text></g></g><g transform="translate(-62,-6) scale(1,1)"><g><path fill="none" stroke="none"></path><text fill="#000000" stroke="none" font-family="Arial" font-size="13px" font-style="normal" font-weight="normal" text-decoration="none" x="805" y="520.5">«constructor»+Output(value: Value)</text></g></g><g transform="translate(-62,-6) scale(1,1)"><g><path fill="none" stroke="none"></path><text fill="#000000" stroke="none" font-family="Arial" font-size="13px" font-style="normal" font-weight="normal" text-decoration="none" x="805" y="535.5">«constructor»+Output()</text></g></g><g transform="translate(-62,-6) scale(1,1)"><g><path fill="none" stroke="none"></path><text fill="#000000" stroke="none" font-family="Arial" font-size="13px" font-style="normal" font-weight="normal" text-decoration="none" x="805" y="550.5">«constructor»+Output(callback: Callable)</text></g></g><g transform="translate(-62,-6) scale(1,1)"><g><path fill="none" stroke="none"></path><text fill="#000000" stroke="none" font-family="Arial" font-size="13px" font-style="normal" font-weight="normal" text-decoration="none" x="805" y="565.5">+createInput(): Input</text></g></g><g transform="translate(-62,-6) scale(1,1)"><g><path fill="none" stroke="none"></path><text fill="#000000" stroke="none" font-family="Arial" font-size="13px" font-style="normal" font-weight="normal" text-decoration="none" x="805" y="580.5">+getValue(): Value</text></g></g><g transform="translate(-62,-6) scale(1,1)"><g><path fill="none" stroke="none"></path><text fill="#000000" stroke="none" font-family="Arial" font-size="13px" font-style="normal" font-weight="normal" text-decoration="none" x="805" y="595.5">+setValue(value: Value): void</text></g></g><g transform="translate(-62,-6) scale(1,1)"><g><path fill="none" stroke="none"></path><text fill="#000000" stroke="none" font-family="Arial" font-size="13px" font-style="normal" font-weight="normal" text-decoration="none" x="805" y="610.5">+setCallback(callback: Callable): void</text></g></g><g transform="translate(-62,-6) scale(1,1)"><g><path fill="none" stroke="none"></path><text fill="#000000" stroke="none" font-family="Arial" font-size="13px" font-style="normal" font-weight="normal" text-decoration="none" x="805" y="625.5">+updateActualValue(): Value</text></g></g><g transform="translate(-62,-6) scale(1,1)"><path fill="none" stroke="#000000" d="M 799 439 L 362 147" stroke-miterlimit="10"></path></g><g transform="translate(-62,-6) scale(1,1)"><path fill="none" stroke="#000000" d="M 372.78861793398494 149.14609484284796 L 362 147 L 368.11118668430424 156.14622311719882" stroke-miterlimit="10"></path></g><g transform="translate(-62,-6) scale(1,1)"><g><path fill="none" stroke="none"></path><text fill="#000000" stroke="none" font-family="Arial" font-size="13px" font-style="normal" font-weight="normal" text-decoration="none" x="348.5" y="179.5">-callback</text></g></g><g transform="translate(-62,-6) scale(1,1)"><path fill="#C0C0C0" stroke="none" d="M 902.5 55 C 902.5 41.7451648 913.2451648 31 926.5 31 C 939.7548352 31 950.5 41.7451648 950.5 55 C 950.5 68.2548352 939.7548352 79 926.5 79 C 913.2451648 79 902.5 68.2548352 902.5 55 Z" opacity="0.2"></path></g><g transform="translate(-62,-6) scale(1,1)"><path fill="#ffffff" stroke="none" d="M 895.5 48 C 895.5 34.7451648 906.2451648 24 919.5 24 C 932.7548352 24 943.5 34.7451648 943.5 48 C 943.5 61.2548352 932.7548352 72 919.5 72 C 906.2451648 72 895.5 61.2548352 895.5 48 Z"></path></g><g transform="translate(-62,-6) scale(1,1)"><path fill="none" stroke="#000000" d="M 895.5 48 C 895.5 34.7451648 906.2451648 24 919.5 24 C 932.7548352 24 943.5 34.7451648 943.5 48 C 943.5 61.2548352 932.7548352 72 919.5 72 C 906.2451648 72 895.5 61.2548352 895.5 48 Z" stroke-miterlimit="10"></path></g><g transform="translate(-62,-6) scale(1,1)"><path fill="none" stroke="#000000" d="M 832 97 L 1007 97" stroke-miterlimit="10"></path></g><g transform="translate(-62,-6) scale(1,1)"><path fill="none" stroke="#000000" d="M 832 107 L 1007 107" stroke-miterlimit="10"></path></g><g transform="translate(-62,-6) scale(1,1)"><g><path fill="none" stroke="none"></path><text fill="#000000" stroke="none" font-family="Arial" font-size="13px" font-style="normal" font-weight="bold" text-decoration="none" x="890.5" y="91.5">Updatable</text></g></g><g transform="translate(-62,-6) scale(1,1)"><g><path fill="none" stroke="none"></path><text fill="#000000" stroke="none" font-family="Arial" font-size="13px" font-style="normal" font-weight="normal" text-decoration="none" x="837" y="124.5">~updateActualValue(): Value</text></g></g><g transform="translate(-62,-6) scale(1,1)"><path fill="none" stroke="#000000" d="M 392 473 Q 808 260 886 131" stroke-miterlimit="10"></path></g><g transform="translate(-62,-6) scale(1,1)"><path fill="none" stroke="#000000" d="M 884.3438544728923 141.8746118088436 L 886 131 L 877.1394165143457 137.518440019955" stroke-miterlimit="10"></path></g><g transform="translate(-62,-6) scale(1,1)"><g><path fill="none" stroke="none"></path><text fill="#000000" stroke="none" font-family="Arial" font-size="13px" font-style="normal" font-weight="normal" text-decoration="none" x="835.5" y="151.5">-updater</text></g></g><g transform="translate(-62,-6) scale(1,1)"><path fill="none" stroke="#000000" d="M 924 439 Q 862 260 914.0843373493976 72" stroke-miterlimit="10"></path></g><g transform="translate(-62,-6) scale(1,1)"><rect fill="#C0C0C0" stroke="none" x="1207" y="23" width="39.59999999999991" height="15" opacity="0.2"></rect></g><g transform="translate(-62,-6) scale(1,1)"><rect fill="#C0C0C0" stroke="none" x="1207" y="37" width="99" height="40" opacity="0.2"></rect></g><g transform="translate(-62,-6) scale(1,1)"><rect fill="#ffffff" stroke="none" x="1200" y="31" width="99" height="39"></rect></g><g transform="translate(-62,-6) scale(1,1)"><path fill="none" stroke="#000000" d="M 1200 31 L 1299 31 L 1299 70 L 1200 70 L 1200 31 Z Z" stroke-miterlimit="10"></path></g><g transform="translate(-62,-6) scale(1,1)"><rect fill="#ffffff" stroke="none" x="1200" y="16" width="39.59999999999991" height="15"></rect></g><g transform="translate(-62,-6) scale(1,1)"><path fill="none" stroke="#000000" d="M 1200 16 L 1239.6 16 L 1239.6 31 L 1200 31 L 1200 16 Z Z" stroke-miterlimit="10"></path></g><g transform="translate(-62,-6) scale(1,1)"><rect fill="#ffffff" stroke="none" x="1200" y="30" width="99" height="40"></rect></g><g transform="translate(-62,-6) scale(1,1)"><path fill="none" stroke="#000000" d="M 1200 30 L 1299 30 L 1299 70 L 1200 70 L 1200 30 Z Z" stroke-miterlimit="10"></path></g><g transform="translate(-62,-6) scale(1,1)"><g><path fill="none" stroke="none"></path><text fill="#000000" stroke="none" font-family="Arial" font-size="13px" font-style="normal" font-weight="bold" text-decoration="none" x="1232.5" y="50.5">signal</text></g></g></g></svg>