<svg version="1.1" xmlns="http://www.w3.org/2000/svg" xmlns:xlink="http://www.w3.org/1999/xlink" width="1169" height="695"><defs></defs><g><g transform="translate(-94,-14) scale(1,1)"><rect fill="#C0C0C0" stroke="none" x="959" y="559" width="301" height="147" opacity="0.2"></rect></g><g transform="translate(-94,-14) scale(1,1)"><rect fill="#ffffff" stroke="none" x="952" y="552" width="301" height="147"></rect></g><g transform="translate(-94,-14) scale(1,1)"><path fill="none" stroke="#000000" d="M 952 552 L 1253 552 L 1253 699 L 952 699 L 952 552 Z Z" stroke-miterlimit="10"></path></g><g transform="translate(-94,-14) scale(1,1)"><path fill="none" stroke="#000000" d="M 952 577 L 1253 577" stroke-miterlimit="10"></path></g><g transform="translate(-94,-14) scale(1,1)"><path fill="none" stroke="#000000" d="M 952 587 L 1253 587" stroke-miterlimit="10"></path></g><g transform="translate(-94,-14) scale(1,1)"><g><path fill="none" stroke="none"></path><text fill="#000000" stroke="none" font-family="Arial" font-size="13px" font-style="normal" font-weight="bold" text-decoration="none" x="1059.5" y="571.5">ConsoleLogger</text></g></g><g transform="translate(-94,-14) scale(1,1)"><g><path fill="none" stroke="none"></path><text fill="#000000" stroke="none" font-family="Arial" font-size="13px" font-style="normal" font-weight="normal" text-decoration="none" x="957" y="604.5">«constructor»+ConsoleLogger(loggerName: String)</text></g></g><g transform="translate(-94,-14) scale(1,1)"><g><path fill="none" stroke="none"></path><text fill="#000000" stroke="none" font-family="Arial" font-size="13px" font-style="normal" font-weight="normal" text-decoration="none" x="957" y="619.5">+log(input: String): void</text></g></g><g transform="translate(-94,-14) scale(1,1)"><g><path fill="none" stroke="none"></path><text fill="#000000" stroke="none" font-family="Arial" font-size="13px" font-style="normal" font-weight="normal" text-decoration="none" x="957" y="634.5">+log(value: Value): void</text></g></g><g transform="translate(-94,-14) scale(1,1)"><g><path fill="none" stroke="none"></path><text fill="#000000" stroke="none" font-family="Arial" font-size="13px" font-style="normal" font-weight="normal" text-decoration="none" x="957" y="649.5">+log(info: String, value: Value): void</text></g></g><g transform="translate(-94,-14) scale(1,1)"><g><path fill="none" stroke="none"></path><text fill="#000000" stroke="none" font-family="Arial" font-size="13px" font-style="normal" font-weight="normal" text-decoration="none" x="957" y="664.5">+log(value: Number): void</text></g></g><g transform="translate(-94,-14) scale(1,1)"><g><path fill="none" stroke="none"></path><text fill="#000000" stroke="none" font-family="Arial" font-size="13px" font-style="normal" font-weight="normal" text-decoration="none" x="957" y="679.5">+log(info: String, value: Number): void</text></g></g><g transform="translate(-94,-14) scale(1,1)"><path fill="#C0C0C0" stroke="none" d="M 189 50 C 189 39.5065888 197.5065888 31 208 31 C 218.4934112 31 227 39.5065888 227 50 C 227 60.4934112 218.4934112 69 208 69 C 197.5065888 69 189 60.4934112 189 50 Z" opacity="0.2"></path></g><g transform="translate(-94,-14) scale(1,1)"><path fill="#ffffff" stroke="none" d="M 182 43 C 182 32.5065888 190.5065888 24 201 24 C 211.4934112 24 220 32.5065888 220 43 C 220 53.4934112 211.4934112 62 201 62 C 190.5065888 62 182 53.4934112 182 43 Z"></path></g><g transform="translate(-94,-14) scale(1,1)"><path fill="none" stroke="#000000" d="M 182 43 C 182 32.5065888 190.5065888 24 201 24 C 211.4934112 24 220 32.5065888 220 43 C 220 53.4934112 211.4934112 62 201 62 C 190.5065888 62 182 53.4934112 182 43 Z" stroke-miterlimit="10"></path></g><g transform="translate(-94,-14) scale(1,1)"><path fill="none" stroke="#000000" d="M 104 87 L 298 87" stroke-miterlimit="10"></path></g><g transform="translate(-94,-14) scale(1,1)"><path fill="none" stroke="#000000" d="M 104 97 L 298 97" stroke-miterlimit="10"></path></g><g transform="translate(-94,-14) scale(1,1)"><g><path fill="none" stroke="none"></path><text fill="#000000" stroke="none" font-family="Arial" font-size="13px" font-style="normal" font-weight="bold" text-decoration="none" x="175" y="81.5">Loggable</text></g></g><g transform="translate(-94,-14) scale(1,1)"><g><path fill="none" stroke="none"></path><text fill="#000000" stroke="none" font-family="Arial" font-size="13px" font-style="normal" font-weight="normal" text-decoration="none" x="109" y="114.5">~setLogger(logger: Logger): void</text></g></g><g transform="translate(-94,-14) scale(1,1)"><rect fill="#C0C0C0" stroke="none" x="535" y="135" width="194" height="72" opacity="0.2"></rect></g><g transform="translate(-94,-14) scale(1,1)"><rect fill="#ffffff" stroke="none" x="528" y="128" width="194" height="72"></rect></g><g transform="translate(-94,-14) scale(1,1)"><path fill="none" stroke="#000000" d="M 528 128 L 722 128 L 722 200 L 528 200 L 528 128 Z Z" stroke-miterlimit="10"></path></g><g transform="translate(-94,-14) scale(1,1)"><path fill="none" stroke="#000000" d="M 528 153 L 722 153" stroke-miterlimit="10"></path></g><g transform="translate(-94,-14) scale(1,1)"><path fill="none" stroke="#000000" d="M 528 163 L 722 163" stroke-miterlimit="10"></path></g><g transform="translate(-94,-14) scale(1,1)"><g><path fill="none" stroke="none"></path><text fill="#000000" stroke="none" font-family="Arial" font-size="13px" font-style="italic" font-weight="bold" text-decoration="none" x="573.5" y="147.5">LoggableAbstract</text></g></g><g transform="translate(-94,-14) scale(1,1)"><g><path fill="none" stroke="none"></path><text fill="#000000" stroke="none" font-family="Arial" font-size="13px" font-style="normal" font-weight="normal" text-decoration="none" x="533" y="180.5">+setLogger(logger: Logger): void</text></g></g><g transform="translate(-94,-14) scale(1,1)"><path fill="none" stroke="#000000" d="M 527 143 L 220 52.69387755102041" stroke-miterlimit="10"></path></g><g transform="translate(-94,-14) scale(1,1)"><rect fill="#C0C0C0" stroke="none" x="535" y="375" width="254" height="160" opacity="0.2"></rect></g><g transform="translate(-94,-14) scale(1,1)"><rect fill="#ffffff" stroke="none" x="528" y="368" width="254" height="160"></rect></g><g transform="translate(-94,-14) scale(1,1)"><path fill="none" stroke="#000000" d="M 528 368 L 782 368 L 782 528 L 528 528 L 528 368 Z Z" stroke-miterlimit="10"></path></g><g transform="translate(-94,-14) scale(1,1)"><path fill="none" stroke="#000000" d="M 528 393 L 782 393" stroke-miterlimit="10"></path></g><g transform="translate(-94,-14) scale(1,1)"><path fill="none" stroke="#000000" d="M 528 416 L 782 416" stroke-miterlimit="10"></path></g><g transform="translate(-94,-14) scale(1,1)"><g><path fill="none" stroke="none"></path><text fill="#000000" stroke="none" font-family="Arial" font-size="13px" font-style="italic" font-weight="bold" text-decoration="none" x="635.5" y="387.5">Logger</text></g></g><g transform="translate(-94,-14) scale(1,1)"><g><path fill="none" stroke="none"></path><text fill="#000000" stroke="none" font-family="Arial" font-size="13px" font-style="normal" font-weight="normal" text-decoration="none" x="533" y="410.5">#loggerName: String</text></g></g><g transform="translate(-94,-14) scale(1,1)"><g><path fill="none" stroke="none"></path><text fill="#000000" stroke="none" font-family="Arial" font-size="13px" font-style="normal" font-weight="normal" text-decoration="none" x="533" y="433.5">«constructor»+Logger(loggerName: String)</text></g></g><g transform="translate(-94,-14) scale(1,1)"><g><path fill="none" stroke="none"></path><text fill="#000000" stroke="none" font-family="Arial" font-size="13px" font-style="italic" font-weight="normal" text-decoration="none" x="533" y="448.5">+log(input: String): void</text></g></g><g transform="translate(-94,-14) scale(1,1)"><g><path fill="none" stroke="none"></path><text fill="#000000" stroke="none" font-family="Arial" font-size="13px" font-style="italic" font-weight="normal" text-decoration="none" x="533" y="463.5">+log(value: Value): void</text></g></g><g transform="translate(-94,-14) scale(1,1)"><g><path fill="none" stroke="none"></path><text fill="#000000" stroke="none" font-family="Arial" font-size="13px" font-style="italic" font-weight="normal" text-decoration="none" x="533" y="478.5">+log(info: String, value: Value): void</text></g></g><g transform="translate(-94,-14) scale(1,1)"><g><path fill="none" stroke="none"></path><text fill="#000000" stroke="none" font-family="Arial" font-size="13px" font-style="italic" font-weight="normal" text-decoration="none" x="533" y="493.5">+log(value: Number): void</text></g></g><g transform="translate(-94,-14) scale(1,1)"><g><path fill="none" stroke="none"></path><text fill="#000000" stroke="none" font-family="Arial" font-size="13px" font-style="italic" font-weight="normal" text-decoration="none" x="533" y="508.5">+log(info: String, value: Number): void</text></g></g><g transform="translate(-94,-14) scale(1,1)"><path fill="none" stroke="#000000" d="M 1079 551 Q 1048 448 783 448" stroke-miterlimit="10"></path></g><g transform="translate(-94,-14) scale(1,1)"><path fill="#FFFFFF" stroke="none" d="M 803.3253497152483 439.580964487968 L 783 448 L 803.3253497152483 456.419035512032"></path></g><g transform="translate(-94,-14) scale(1,1)"><path fill="none" stroke="#000000" d="M 803.3253497152483 439.580964487968 L 783 448 L 803.3253497152483 456.419035512032 L 803.3253497152483 439.580964487968" stroke-miterlimit="10"></path></g><g transform="translate(-94,-14) scale(1,1)"><path fill="none" stroke="#000000" d="M 629 201 L 646 367" stroke-miterlimit="10"></path></g><g transform="translate(-94,-14) scale(1,1)"><path fill="none" stroke="#000000" d="M 640.7770434381243 357.3190535197864 L 646 367 L 649.152274901718 356.46134909279186" stroke-miterlimit="10"></path></g><g transform="translate(-94,-14) scale(1,1)"><g><path fill="none" stroke="none"></path><text fill="#000000" stroke="none" font-family="Arial" font-size="13px" font-style="normal" font-weight="normal" text-decoration="none" x="636.5" y="345.5">#logger</text></g></g></g></svg>